<svg width="60" height="81" viewBox="0 0 60 81" fill="none" xmlns="http://www.w3.org/2000/svg">
<path d="M23.2422 50H5.51758V46.2891H12.1094V21.9238H5.51758V18.6035C8.00781 18.6035 9.83887 18.2536 11.0107 17.5537C12.1989 16.8376 12.8662 15.4948 13.0127 13.5254H16.7969V46.2891H23.2422V50ZM53.3447 37.5H49.0234V50H44.3359V37.5H28.2715V32.373L44.5312 13.6475H49.0234V33.5938H53.3447V37.5ZM44.3359 33.5938V19.3848L32.0801 33.5938H44.3359Z" fill="white"/>
<path d="M23.2422 50V51H24.2422V50H23.2422ZM5.51758 50H4.51758V51H5.51758V50ZM5.51758 46.2891V45.2891H4.51758V46.2891H5.51758ZM12.1094 46.2891V47.2891H13.1094V46.2891H12.1094ZM12.1094 21.9238H13.1094V20.9238H12.1094V21.9238ZM5.51758 21.9238H4.51758V22.9238H5.51758V21.9238ZM5.51758 18.6035V17.6035H4.51758V18.6035H5.51758ZM11.0107 17.5537L11.5235 18.4123L11.527 18.4102L11.0107 17.5537ZM13.0127 13.5254V12.5254H12.0843L12.0155 13.4512L13.0127 13.5254ZM16.7969 13.5254H17.7969V12.5254H16.7969V13.5254ZM16.7969 46.2891H15.7969V47.2891H16.7969V46.2891ZM23.2422 46.2891H24.2422V45.2891H23.2422V46.2891ZM23.2422 49H5.51758V51H23.2422V49ZM6.51758 50V46.2891H4.51758V50H6.51758ZM5.51758 47.2891H12.1094V45.2891H5.51758V47.2891ZM13.1094 46.2891V21.9238H11.1094V46.2891H13.1094ZM12.1094 20.9238H5.51758V22.9238H12.1094V20.9238ZM6.51758 21.9238V18.6035H4.51758V21.9238H6.51758ZM5.51758 19.6035C8.06117 19.6035 10.1152 19.2533 11.5235 18.4123L10.498 16.6952C9.56256 17.2538 7.95446 17.6035 5.51758 17.6035V19.6035ZM11.527 18.4102C13.0983 17.463 13.8503 15.7459 14.0099 13.5996L12.0155 13.4512C11.8821 15.2437 11.2994 16.2121 10.4945 16.6973L11.527 18.4102ZM13.0127 14.5254H16.7969V12.5254H13.0127V14.5254ZM15.7969 13.5254V46.2891H17.7969V13.5254H15.7969ZM16.7969 47.2891H23.2422V45.2891H16.7969V47.2891ZM22.2422 46.2891V50H24.2422V46.2891H22.2422ZM53.3447 37.5V38.5H54.3447V37.5H53.3447ZM49.0234 37.5V36.5H48.0234V37.5H49.0234ZM49.0234 50V51H50.0234V50H49.0234ZM44.3359 50H43.3359V51H44.3359V50ZM44.3359 37.5H45.3359V36.5H44.3359V37.5ZM28.2715 37.5H27.2715V38.5H28.2715V37.5ZM28.2715 32.373L27.5164 31.7174L27.2715 31.9995V32.373H28.2715ZM44.5312 13.6475V12.6475H44.0752L43.7762 12.9918L44.5312 13.6475ZM49.0234 13.6475H50.0234V12.6475H49.0234V13.6475ZM49.0234 33.5938H48.0234V34.5938H49.0234V33.5938ZM53.3447 33.5938H54.3447V32.5938H53.3447V33.5938ZM44.3359 33.5938V34.5938H45.3359V33.5938H44.3359ZM44.3359 19.3848H45.3359V16.6944L43.5787 18.7316L44.3359 19.3848ZM32.0801 33.5938L31.3228 32.9406L29.8969 34.5938H32.0801V33.5938ZM53.3447 36.5H49.0234V38.5H53.3447V36.5ZM48.0234 37.5V50H50.0234V37.5H48.0234ZM49.0234 49H44.3359V51H49.0234V49ZM45.3359 50V37.5H43.3359V50H45.3359ZM44.3359 36.5H28.2715V38.5H44.3359V36.5ZM29.2715 37.5V32.373H27.2715V37.5H29.2715ZM29.0266 33.0287L45.2863 14.3031L43.7762 12.9918L27.5164 31.7174L29.0266 33.0287ZM44.5312 14.6475H49.0234V12.6475H44.5312V14.6475ZM48.0234 13.6475V33.5938H50.0234V13.6475H48.0234ZM49.0234 34.5938H53.3447V32.5938H49.0234V34.5938ZM52.3447 33.5938V37.5H54.3447V33.5938H52.3447ZM45.3359 33.5938V19.3848H43.3359V33.5938H45.3359ZM43.5787 18.7316L31.3228 32.9406L32.8373 34.2469L45.0932 20.0379L43.5787 18.7316ZM32.0801 34.5938H44.3359V32.5938H32.0801V34.5938Z" fill="black"/>
<path d="M17.796 61.09H20.358L26.028 76H23.046L21.66 72.283H16.452L15.087 76H12.105L17.796 61.09ZM21.135 70.246L19.077 64.387L16.935 70.246H21.135ZM33.9844 76.21C33.1164 76.21 32.3604 76.021 31.7164 75.643C31.0724 75.251 30.5684 74.726 30.2044 74.068V80.473H27.3904V64.996H29.8474V66.886C30.2534 66.242 30.7784 65.738 31.4224 65.374C32.0664 64.996 32.8084 64.807 33.6484 64.807C34.3904 64.807 35.0764 64.961 35.7064 65.269C36.3364 65.563 36.8754 65.969 37.3234 66.487C37.7854 66.991 38.1424 67.593 38.3944 68.293C38.6604 68.979 38.7934 69.707 38.7934 70.477C38.7934 71.275 38.6744 72.024 38.4364 72.724C38.1984 73.424 37.8624 74.033 37.4284 74.551C37.0084 75.069 36.5044 75.475 35.9164 75.769C35.3284 76.063 34.6844 76.21 33.9844 76.21ZM33.0394 73.816C33.4594 73.816 33.8444 73.725 34.1944 73.543C34.5584 73.361 34.8664 73.116 35.1184 72.808C35.3704 72.5 35.5664 72.143 35.7064 71.737C35.8464 71.331 35.9164 70.911 35.9164 70.477C35.9164 70.015 35.8394 69.588 35.6854 69.196C35.5314 68.79 35.3144 68.44 35.0344 68.146C34.7684 67.852 34.4464 67.621 34.0684 67.453C33.7044 67.285 33.3054 67.201 32.8714 67.201C32.6054 67.201 32.3324 67.25 32.0524 67.348C31.7724 67.432 31.5134 67.558 31.2754 67.726C31.0374 67.894 30.8204 68.09 30.6244 68.314C30.4424 68.538 30.3024 68.783 30.2044 69.049V71.632C30.4564 72.262 30.8414 72.787 31.3594 73.207C31.8774 73.613 32.4374 73.816 33.0394 73.816ZM47.2519 67.432C46.3979 67.446 45.6349 67.614 44.9629 67.936C44.2909 68.244 43.8079 68.713 43.5139 69.343V76H40.6999V64.996H43.2829V67.348C43.4789 66.97 43.7099 66.634 43.9759 66.34C44.2419 66.032 44.5289 65.766 44.8369 65.542C45.1449 65.318 45.4529 65.15 45.7609 65.038C46.0829 64.912 46.3909 64.849 46.6849 64.849C46.8389 64.849 46.9509 64.849 47.0209 64.849C47.1049 64.849 47.1819 64.856 47.2519 64.87V67.432ZM47.7942 76V72.976H50.1042V76H47.7942Z" fill="#FF0C0C"/>
</svg>
