<svg width="52" height="74" viewBox="0 0 52 74" fill="none" xmlns="http://www.w3.org/2000/svg">
<mask id="path-1-outside-1" maskUnits="userSpaceOnUse" x="5.81958" y="0.692383" width="38" height="51" fill="black">
<rect fill="white" x="5.81958" y="0.692383" width="38" height="51"/>
<path d="M6.81958 18.1085C6.81958 15.8045 7.26783 13.6555 8.16432 11.6617C9.06082 9.66782 10.2711 7.93981 11.7951 6.47765C13.364 4.97117 15.2018 3.79701 17.3086 2.95516C19.4602 2.11331 21.7687 1.69238 24.234 1.69238C26.9235 1.69238 29.344 2.17977 31.4956 3.15455C33.6921 4.12932 35.5523 5.54718 37.0763 7.40811C38.6004 9.26905 39.7658 11.5509 40.5727 14.2537C41.4243 16.9122 41.8502 19.9473 41.8502 23.359C41.8502 27.6569 41.4019 31.4673 40.5054 34.7904C39.6538 38.0692 38.4211 40.8163 36.8074 43.0317C35.2385 45.2914 33.311 46.9973 31.025 48.1493C28.7389 49.3013 26.1839 49.8773 23.3599 49.8773C20.3567 49.8773 17.5775 49.2348 15.0225 47.9499C12.4675 46.665 10.3159 44.8262 8.56775 42.4336L13.745 36.8508C14.8208 38.5345 16.2104 39.8416 17.9137 40.772C19.6171 41.7025 21.4773 42.1677 23.4944 42.1677C26.4977 42.1677 28.8734 40.9936 30.6216 38.6452C32.4145 36.2969 33.3559 32.9738 33.4455 28.6759C32.549 30.271 31.2267 31.5338 29.4785 32.4643C27.7304 33.3947 25.7132 33.86 23.4272 33.86C21.0515 33.86 18.855 33.4612 16.8379 32.6637C14.8208 31.8661 13.0726 30.7584 11.5934 29.3406C10.1142 27.9227 8.94876 26.2612 8.09709 24.3559C7.24542 22.4064 6.81958 20.3239 6.81958 18.1085ZM24.234 9.20259C23.0237 9.20259 21.8807 9.44628 20.8049 9.93367C19.7739 10.3767 18.855 11.0192 18.0482 11.8611C17.2413 12.6586 16.5914 13.6112 16.0983 14.7189C15.6501 15.7823 15.4259 16.9122 15.4259 18.1085C15.4259 19.3048 15.6501 20.4347 16.0983 21.4981C16.5914 22.5171 17.2189 23.4254 17.981 24.223C18.7878 25.0205 19.7291 25.6408 20.8049 26.0839C21.8807 26.527 23.0237 26.7485 24.234 26.7485C25.4443 26.7485 26.5873 26.527 27.6631 26.0839C28.7389 25.6408 29.6578 25.0205 30.4198 24.223C31.2267 23.4254 31.8542 22.5171 32.3025 21.4981C32.7956 20.4347 33.0421 19.3048 33.0421 18.1085C33.0421 16.9122 32.7956 15.7823 32.3025 14.7189C31.8542 13.6112 31.2267 12.6586 30.4198 11.8611C29.613 11.0635 28.6717 10.4211 27.5959 9.93367C26.5649 9.44628 25.4443 9.20259 24.234 9.20259Z"/>
</mask>
<path d="M6.81958 18.1085C6.81958 15.8045 7.26783 13.6555 8.16432 11.6617C9.06082 9.66782 10.2711 7.93981 11.7951 6.47765C13.364 4.97117 15.2018 3.79701 17.3086 2.95516C19.4602 2.11331 21.7687 1.69238 24.234 1.69238C26.9235 1.69238 29.344 2.17977 31.4956 3.15455C33.6921 4.12932 35.5523 5.54718 37.0763 7.40811C38.6004 9.26905 39.7658 11.5509 40.5727 14.2537C41.4243 16.9122 41.8502 19.9473 41.8502 23.359C41.8502 27.6569 41.4019 31.4673 40.5054 34.7904C39.6538 38.0692 38.4211 40.8163 36.8074 43.0317C35.2385 45.2914 33.311 46.9973 31.025 48.1493C28.7389 49.3013 26.1839 49.8773 23.3599 49.8773C20.3567 49.8773 17.5775 49.2348 15.0225 47.9499C12.4675 46.665 10.3159 44.8262 8.56775 42.4336L13.745 36.8508C14.8208 38.5345 16.2104 39.8416 17.9137 40.772C19.6171 41.7025 21.4773 42.1677 23.4944 42.1677C26.4977 42.1677 28.8734 40.9936 30.6216 38.6452C32.4145 36.2969 33.3559 32.9738 33.4455 28.6759C32.549 30.271 31.2267 31.5338 29.4785 32.4643C27.7304 33.3947 25.7132 33.86 23.4272 33.86C21.0515 33.86 18.855 33.4612 16.8379 32.6637C14.8208 31.8661 13.0726 30.7584 11.5934 29.3406C10.1142 27.9227 8.94876 26.2612 8.09709 24.3559C7.24542 22.4064 6.81958 20.3239 6.81958 18.1085ZM24.234 9.20259C23.0237 9.20259 21.8807 9.44628 20.8049 9.93367C19.7739 10.3767 18.855 11.0192 18.0482 11.8611C17.2413 12.6586 16.5914 13.6112 16.0983 14.7189C15.6501 15.7823 15.4259 16.9122 15.4259 18.1085C15.4259 19.3048 15.6501 20.4347 16.0983 21.4981C16.5914 22.5171 17.2189 23.4254 17.981 24.223C18.7878 25.0205 19.7291 25.6408 20.8049 26.0839C21.8807 26.527 23.0237 26.7485 24.234 26.7485C25.4443 26.7485 26.5873 26.527 27.6631 26.0839C28.7389 25.6408 29.6578 25.0205 30.4198 24.223C31.2267 23.4254 31.8542 22.5171 32.3025 21.4981C32.7956 20.4347 33.0421 19.3048 33.0421 18.1085C33.0421 16.9122 32.7956 15.7823 32.3025 14.7189C31.8542 13.6112 31.2267 12.6586 30.4198 11.8611C29.613 11.0635 28.6717 10.4211 27.5959 9.93367C26.5649 9.44628 25.4443 9.20259 24.234 9.20259Z" fill="white"/>
<path d="M8.16432 11.6617L7.25228 11.2516H7.25228L8.16432 11.6617ZM11.7951 6.47765L12.4874 7.19925L12.4878 7.19895L11.7951 6.47765ZM17.3086 2.95516L16.9442 2.02388L16.9375 2.02655L17.3086 2.95516ZM31.4956 3.15455L31.083 4.06545L31.09 4.06857L31.4956 3.15455ZM40.5727 14.2537L39.6144 14.5397L39.6173 14.5493L39.6203 14.5588L40.5727 14.2537ZM40.5054 34.7904L39.5399 34.53L39.5375 34.539L40.5054 34.7904ZM36.8074 43.0317L35.9991 42.443L35.9924 42.4521L35.9859 42.4614L36.8074 43.0317ZM31.025 48.1493L30.575 47.2563L31.025 48.1493ZM15.0225 47.9499L15.4718 47.0565L15.0225 47.9499ZM8.56775 42.4336L7.83451 41.7536L7.27403 42.358L7.76031 43.0235L8.56775 42.4336ZM13.745 36.8508L14.5877 36.3123L13.8913 35.2224L13.0118 36.1708L13.745 36.8508ZM30.6216 38.6452L29.8267 38.0383L29.8194 38.0481L30.6216 38.6452ZM33.4455 28.6759L34.4453 28.6968L32.5738 28.186L33.4455 28.6759ZM29.4785 32.4643L29.9484 33.347L29.4785 32.4643ZM11.5934 29.3406L10.9014 30.0625L11.5934 29.3406ZM8.09709 24.3559L7.18068 24.7563L7.18415 24.764L8.09709 24.3559ZM20.8049 9.93367L21.1998 10.8524L21.2087 10.8486L21.2176 10.8445L20.8049 9.93367ZM18.0482 11.8611L18.7512 12.5723L18.7608 12.5628L18.7702 12.553L18.0482 11.8611ZM16.0983 14.7189L15.1847 14.3123L15.1807 14.3213L15.1768 14.3305L16.0983 14.7189ZM16.0983 21.4981L15.1768 21.8865L15.1869 21.9103L15.1981 21.9336L16.0983 21.4981ZM17.981 24.223L17.2579 24.9138L17.2678 24.9241L17.278 24.9342L17.981 24.223ZM20.8049 26.0839L21.1857 25.1593L20.8049 26.0839ZM27.6631 26.0839L27.2823 25.1593L27.6631 26.0839ZM30.4198 24.223L29.7168 23.5118L29.7067 23.5218L29.6968 23.5322L30.4198 24.223ZM32.3025 21.4981L31.3953 21.0774L31.3911 21.0864L31.3871 21.0954L32.3025 21.4981ZM32.3025 14.7189L31.3755 15.094L31.3848 15.1171L31.3953 15.1396L32.3025 14.7189ZM27.5959 9.93367L27.1685 10.8377L27.1758 10.8412L27.1832 10.8445L27.5959 9.93367ZM7.81958 18.1085C7.81958 15.9381 8.24096 13.9298 9.07637 12.0718L7.25228 11.2516C6.2947 13.3813 5.81958 15.6709 5.81958 18.1085H7.81958ZM9.07637 12.0718C9.92216 10.1907 11.0592 8.5695 12.4874 7.19925L11.1028 5.75604C9.48299 7.31011 8.19949 9.14495 7.25228 11.2516L9.07637 12.0718ZM12.4878 7.19895C13.9598 5.78545 15.6872 4.67995 17.6797 3.88377L16.9375 2.02655C14.7165 2.91407 12.7682 4.15689 11.1025 5.75634L12.4878 7.19895ZM17.673 3.88641C19.7008 3.09297 21.8849 2.69238 24.234 2.69238V0.692383C21.6524 0.692383 19.2195 1.13365 16.9442 2.0239L17.673 3.88641ZM24.234 2.69238C26.8009 2.69238 29.0778 3.15701 31.083 4.06543L31.9083 2.24367C29.6102 1.20253 27.0461 0.692383 24.234 0.692383V2.69238ZM31.09 4.06857C33.1434 4.97986 34.8776 6.30161 36.3027 8.04171L37.85 6.77451C36.227 4.79274 34.2408 3.27878 31.9013 2.24052L31.09 4.06857ZM36.3027 8.04171C37.7296 9.78406 38.839 11.9423 39.6144 14.5397L41.5309 13.9676C40.6926 11.1595 39.4712 8.75404 37.85 6.77451L36.3027 8.04171ZM39.6203 14.5588C40.4343 17.0996 40.8502 20.0287 40.8502 23.359H42.8502C42.8502 19.8659 42.4144 16.7248 41.525 13.9486L39.6203 14.5588ZM40.8502 23.359C40.8502 27.5897 40.4087 31.3098 39.5399 34.53L41.4709 35.0509C42.3952 31.6249 42.8502 27.724 42.8502 23.359H40.8502ZM39.5375 34.539C38.7102 37.7241 37.5237 40.3498 35.9991 42.443L37.6157 43.6205C39.3184 41.2828 40.5973 38.4144 41.4733 35.0419L39.5375 34.539ZM35.9859 42.4614C34.5048 44.5948 32.7013 46.1848 30.575 47.2563L31.475 49.0423C33.9208 47.8098 35.9722 45.9881 37.6288 43.602L35.9859 42.4614ZM30.575 47.2563C28.4424 48.3309 26.044 48.8773 23.3599 48.8773V50.8773C26.3238 50.8773 29.0354 50.2717 31.475 49.0423L30.575 47.2563ZM23.3599 48.8773C20.5047 48.8773 17.8804 48.2678 15.4718 47.0565L14.5732 48.8433C17.2747 50.2019 20.2087 50.8773 23.3599 50.8773V48.8773ZM15.4718 47.0565C13.0638 45.8455 11.0332 44.1129 9.37519 41.8436L7.76031 43.0235C9.5986 45.5395 11.8712 47.4845 14.5732 48.8433L15.4718 47.0565ZM9.30098 43.1135L14.4782 37.5307L13.0118 36.1708L7.83451 41.7536L9.30098 43.1135ZM12.9023 37.3892C14.066 39.2104 15.5788 40.636 17.4343 41.6496L18.3931 39.8944C16.8419 39.0471 15.5756 37.8586 14.5877 36.3123L12.9023 37.3892ZM17.4343 41.6496C19.2906 42.6636 21.3166 43.1677 23.4944 43.1677V41.1677C21.638 41.1677 19.9436 40.7414 18.3931 39.8944L17.4343 41.6496ZM23.4944 43.1677C26.8041 43.1677 29.4811 41.8518 31.4237 39.2424L29.8194 38.0481C28.2656 40.1353 26.1913 41.1677 23.4944 41.1677V43.1677ZM31.4164 39.2521C33.3848 36.674 34.3532 33.1143 34.4453 28.6968L32.4457 28.6551C32.3586 32.8334 31.4443 35.9198 29.8267 38.0384L31.4164 39.2521ZM32.5738 28.186C31.7787 29.6007 30.6026 30.7332 29.0087 31.5815L29.9484 33.347C31.8508 32.3344 33.3194 30.9414 34.3173 29.1659L32.5738 28.186ZM29.0087 31.5815C27.4261 32.4239 25.5748 32.86 23.4272 32.86V34.86C25.8516 34.86 28.0346 34.3656 29.9484 33.347L29.0087 31.5815ZM23.4272 32.86C21.1653 32.86 19.095 32.4807 17.2056 31.7337L16.4702 33.5936C18.6151 34.4417 20.9376 34.86 23.4272 34.86V32.86ZM17.2056 31.7337C15.3019 30.981 13.6656 29.9416 12.2854 28.6186L10.9014 30.0625C12.4797 31.5752 14.3397 32.7512 16.4702 33.5936L17.2056 31.7337ZM12.2854 28.6186C10.9012 27.2918 9.81 25.7374 9.01003 23.9478L7.18415 24.764C8.08752 26.7849 9.32725 28.5536 10.9014 30.0625L12.2854 28.6186ZM9.01346 23.9556C8.21923 22.1375 7.81958 20.1919 7.81958 18.1085H5.81958C5.81958 20.4558 6.2716 22.6752 7.18071 24.7562L9.01346 23.9556ZM24.234 8.20259C22.885 8.20259 21.6009 8.47519 20.3922 9.02279L21.2176 10.8445C22.1605 10.4174 23.1625 10.2026 24.234 10.2026V8.20259ZM20.4101 9.01492C19.2511 9.51299 18.2221 10.2344 17.3262 11.1691L18.7702 12.553C19.488 11.804 20.2968 11.2405 21.1998 10.8524L20.4101 9.01492ZM17.3452 11.1499C16.4439 12.0408 15.7249 13.0987 15.1847 14.3123L17.0119 15.1256C17.4579 14.1237 18.0388 13.2764 18.7512 12.5723L17.3452 11.1499ZM15.1768 14.3305C14.6749 15.5214 14.4259 16.7838 14.4259 18.1085H16.4259C16.4259 17.0406 16.6253 16.0433 17.0198 15.1074L15.1768 14.3305ZM14.4259 18.1085C14.4259 19.4332 14.6749 20.6956 15.1768 21.8865L17.0198 21.1096C16.6253 20.1737 16.4259 19.1764 16.4259 18.1085H14.4259ZM15.1981 21.9336C15.7354 23.044 16.422 24.0389 17.2579 24.9138L18.704 23.5322C18.0158 22.8119 17.4474 21.9903 16.9985 21.0625L15.1981 21.9336ZM17.278 24.9342C18.1797 25.8255 19.2312 26.5173 20.4241 27.0086L21.1857 25.1593C20.2271 24.7644 19.3959 24.2156 18.684 23.5118L17.278 24.9342ZM20.4241 27.0086C21.6255 27.5034 22.8985 27.7485 24.234 27.7485V25.7485C23.149 25.7485 22.1359 25.5506 21.1857 25.1593L20.4241 27.0086ZM24.234 27.7485C25.5696 27.7485 26.8425 27.5034 28.0439 27.0086L27.2823 25.1593C26.3321 25.5506 25.319 25.7485 24.234 25.7485V27.7485ZM28.0439 27.0086C29.2417 26.5153 30.2791 25.8178 31.1429 24.9138L29.6968 23.5322C29.0365 24.2232 28.2361 24.7664 27.2823 25.1593L28.0439 27.0086ZM31.1228 24.9342C32.0175 24.0498 32.7179 23.0373 33.2178 21.9007L31.3871 21.0954C30.9906 21.997 30.4358 22.8011 29.7168 23.5118L31.1228 24.9342ZM33.2097 21.9187C33.7652 20.7207 34.0421 19.447 34.0421 18.1085H32.0421C32.0421 19.1626 31.8259 20.1486 31.3953 21.0774L33.2097 21.9187ZM34.0421 18.1085C34.0421 16.77 33.7652 15.4962 33.2097 14.2983L31.3953 15.1396C31.8259 16.0684 32.0421 17.0544 32.0421 18.1085H34.0421ZM33.2295 14.3438C32.733 13.1169 32.0315 12.0481 31.1228 11.1499L29.7168 12.5723C30.4218 13.2691 30.9755 14.1056 31.3755 15.094L33.2295 14.3438ZM31.1228 11.1499C30.2284 10.2657 29.1877 9.557 28.0086 9.02279L27.1832 10.8445C28.1557 11.2851 28.9976 11.8613 29.7168 12.5723L31.1228 11.1499ZM28.0233 9.0296C26.8506 8.4752 25.5828 8.20259 24.234 8.20259V10.2026C25.3057 10.2026 26.2793 10.4174 27.1685 10.8377L28.0233 9.0296Z" fill="black" mask="url(#path-1-outside-1)"/>
<path d="M13.713 74V64.13L9.87 71.48H8.295L4.452 64.13V74H1.554V59.09H4.662L9.072 67.574L13.524 59.09H16.611V74H13.713ZM23.9659 59.09H26.5279L32.1979 74H29.2159L27.8299 70.283H22.6219L21.2569 74H18.2749L23.9659 59.09ZM27.3049 68.246L25.2469 62.387L23.1049 68.246H27.3049ZM33.8333 74V59.09H40.4273C41.1133 59.09 41.7433 59.237 42.3173 59.531C42.9053 59.811 43.4093 60.189 43.8293 60.665C44.2493 61.127 44.5783 61.659 44.8163 62.261C45.0543 62.849 45.1733 63.444 45.1733 64.046C45.1733 65.012 44.9283 65.894 44.4383 66.692C43.9623 67.476 43.3113 68.043 42.4853 68.393L45.8873 74H42.6323L39.5873 69.002H36.7313V74H33.8333ZM36.7313 66.461H40.3643C40.6303 66.461 40.8753 66.398 41.0993 66.272C41.3373 66.146 41.5403 65.978 41.7083 65.768C41.8763 65.544 42.0093 65.285 42.1073 64.991C42.2053 64.697 42.2543 64.382 42.2543 64.046C42.2543 63.696 42.1983 63.374 42.0863 63.08C41.9743 62.786 41.8203 62.534 41.6243 62.324C41.4423 62.1 41.2253 61.932 40.9733 61.82C40.7353 61.694 40.4903 61.631 40.2383 61.631H36.7313V66.461ZM47.4631 74V70.976H49.7731V74H47.4631Z" fill="#FF0C0C"/>
</svg>
