<svg width="241" height="248" viewBox="0 0 241 248" fill="none" xmlns="http://www.w3.org/2000/svg">
<path d="M67.3057 184.157C67.3057 184.731 67.1867 185.256 66.9487 185.732C66.7247 186.208 66.4097 186.614 66.0037 186.95C65.6117 187.286 65.1497 187.545 64.6177 187.727C64.0997 187.909 63.5397 188 62.9377 188H55.8607V173.09H63.2737C63.7917 173.09 64.2607 173.202 64.6807 173.426C65.1007 173.65 65.4577 173.944 65.7517 174.308C66.0457 174.658 66.2697 175.064 66.4237 175.526C66.5917 175.974 66.6757 176.429 66.6757 176.891C66.6757 177.633 66.4867 178.319 66.1087 178.949C65.7447 179.579 65.2197 180.048 64.5337 180.356C65.3877 180.608 66.0597 181.077 66.5497 181.763C67.0537 182.435 67.3057 183.233 67.3057 184.157ZM65.3947 183.821C65.3947 183.485 65.3317 183.163 65.2057 182.855C65.0937 182.533 64.9327 182.253 64.7227 182.015C64.5267 181.777 64.2887 181.588 64.0087 181.448C63.7287 181.308 63.4207 181.238 63.0847 181.238H57.7507V186.362H62.9377C63.2877 186.362 63.6097 186.292 63.9037 186.152C64.1977 186.012 64.4567 185.83 64.6807 185.606C64.9047 185.368 65.0797 185.095 65.2057 184.787C65.3317 184.479 65.3947 184.157 65.3947 183.821ZM57.7507 174.728V179.705H62.4967C62.8327 179.705 63.1407 179.642 63.4207 179.516C63.7007 179.376 63.9387 179.194 64.1347 178.97C64.3447 178.746 64.5057 178.487 64.6177 178.193C64.7437 177.885 64.8067 177.563 64.8067 177.227C64.8067 176.877 64.7507 176.548 64.6387 176.24C64.5267 175.932 64.3727 175.666 64.1767 175.442C63.9947 175.218 63.7637 175.043 63.4837 174.917C63.2177 174.791 62.9307 174.728 62.6227 174.728H57.7507ZM72.4696 188.21C71.9516 188.21 71.4686 188.126 71.0206 187.958C70.5726 187.776 70.1806 187.531 69.8446 187.223C69.5226 186.915 69.2636 186.558 69.0676 186.152C68.8856 185.732 68.7946 185.277 68.7946 184.787C68.7946 184.283 68.9066 183.828 69.1306 183.422C69.3546 183.002 69.6696 182.645 70.0756 182.351C70.4956 182.057 70.9856 181.826 71.5456 181.658C72.1196 181.49 72.7426 181.406 73.4146 181.406C73.9466 181.406 74.4856 181.455 75.0316 181.553C75.5776 181.651 76.0606 181.784 76.4806 181.952V181.07C76.4806 180.174 76.2286 179.474 75.7246 178.97C75.2206 178.452 74.5066 178.193 73.5826 178.193C72.4766 178.193 71.3146 178.62 70.0966 179.474L69.4876 178.277C70.9016 177.325 72.3226 176.849 73.7506 176.849C75.1926 176.849 76.3126 177.234 77.1106 178.004C77.9226 178.774 78.3286 179.859 78.3286 181.259V185.732C78.3286 186.166 78.5246 186.39 78.9166 186.404V188C78.7206 188.028 78.5596 188.049 78.4336 188.063C78.3076 188.077 78.1746 188.084 78.0346 188.084C77.6706 188.084 77.3766 187.979 77.1526 187.769C76.9426 187.545 76.8166 187.279 76.7746 186.971L76.7326 186.194C76.2426 186.852 75.6196 187.356 74.8636 187.706C74.1216 188.042 73.3236 188.21 72.4696 188.21ZM72.9526 186.824C73.6106 186.824 74.2196 186.705 74.7796 186.467C75.3536 186.215 75.7876 185.886 76.0816 185.48C76.3476 185.214 76.4806 184.941 76.4806 184.661V183.044C75.5846 182.694 74.6536 182.519 73.6876 182.519C72.7636 182.519 72.0076 182.715 71.4196 183.107C70.8456 183.499 70.5586 184.01 70.5586 184.64C70.5586 184.948 70.6146 185.235 70.7266 185.501C70.8526 185.767 71.0206 185.998 71.2306 186.194C71.4546 186.39 71.7136 186.544 72.0076 186.656C72.3016 186.768 72.6166 186.824 72.9526 186.824ZM90.7965 188H88.9485V181.868C88.9485 180.692 88.7665 179.838 88.4025 179.306C88.0525 178.774 87.5135 178.508 86.7855 178.508C86.4075 178.508 86.0295 178.585 85.6515 178.739C85.2735 178.879 84.9165 179.075 84.5805 179.327C84.2445 179.579 83.9505 179.88 83.6985 180.23C83.4465 180.58 83.2575 180.965 83.1315 181.385V188H81.2835V177.038H82.9635V179.39C83.3975 178.62 84.0205 178.004 84.8325 177.542C85.6585 177.08 86.5545 176.849 87.5205 176.849C88.1505 176.849 88.6755 176.968 89.0955 177.206C89.5155 177.43 89.8515 177.752 90.1035 178.172C90.3555 178.578 90.5305 179.061 90.6285 179.621C90.7405 180.181 90.7965 180.79 90.7965 181.448V188ZM101.398 188L97.6182 182.645L95.5182 184.619V188H93.6702V172.67H95.5182V182.75L101.146 177.059H103.183L98.8152 181.595L103.393 188H101.398ZM104.454 183.107V181.427H110.649V183.107H104.454ZM123.255 174.77H118.11V188H116.22V174.77H111.075V173.09H123.255V174.77ZM129.203 178.655C128.279 178.683 127.46 178.921 126.746 179.369C126.046 179.817 125.549 180.44 125.255 181.238V188H123.407V177.038H125.129V179.579C125.507 178.823 126.004 178.214 126.62 177.752C127.236 177.276 127.894 177.01 128.594 176.954C128.734 176.954 128.853 176.954 128.951 176.954C129.049 176.954 129.133 176.961 129.203 176.975V178.655ZM133.849 188.21C133.331 188.21 132.848 188.126 132.4 187.958C131.952 187.776 131.56 187.531 131.224 187.223C130.902 186.915 130.643 186.558 130.447 186.152C130.265 185.732 130.174 185.277 130.174 184.787C130.174 184.283 130.286 183.828 130.51 183.422C130.734 183.002 131.049 182.645 131.455 182.351C131.875 182.057 132.365 181.826 132.925 181.658C133.499 181.49 134.122 181.406 134.794 181.406C135.326 181.406 135.865 181.455 136.411 181.553C136.957 181.651 137.44 181.784 137.86 181.952V181.07C137.86 180.174 137.608 179.474 137.104 178.97C136.6 178.452 135.886 178.193 134.962 178.193C133.856 178.193 132.694 178.62 131.476 179.474L130.867 178.277C132.281 177.325 133.702 176.849 135.13 176.849C136.572 176.849 137.692 177.234 138.49 178.004C139.302 178.774 139.708 179.859 139.708 181.259V185.732C139.708 186.166 139.904 186.39 140.296 186.404V188C140.1 188.028 139.939 188.049 139.813 188.063C139.687 188.077 139.554 188.084 139.414 188.084C139.05 188.084 138.756 187.979 138.532 187.769C138.322 187.545 138.196 187.279 138.154 186.971L138.112 186.194C137.622 186.852 136.999 187.356 136.243 187.706C135.501 188.042 134.703 188.21 133.849 188.21ZM134.332 186.824C134.99 186.824 135.599 186.705 136.159 186.467C136.733 186.215 137.167 185.886 137.461 185.48C137.727 185.214 137.86 184.941 137.86 184.661V183.044C136.964 182.694 136.033 182.519 135.067 182.519C134.143 182.519 133.387 182.715 132.799 183.107C132.225 183.499 131.938 184.01 131.938 184.64C131.938 184.948 131.994 185.235 132.106 185.501C132.232 185.767 132.4 185.998 132.61 186.194C132.834 186.39 133.093 186.544 133.387 186.656C133.681 186.768 133.996 186.824 134.332 186.824ZM152.176 188H150.328V181.868C150.328 180.692 150.146 179.838 149.782 179.306C149.432 178.774 148.893 178.508 148.165 178.508C147.787 178.508 147.409 178.585 147.031 178.739C146.653 178.879 146.296 179.075 145.96 179.327C145.624 179.579 145.33 179.88 145.078 180.23C144.826 180.58 144.637 180.965 144.511 181.385V188H142.663V177.038H144.343V179.39C144.777 178.62 145.4 178.004 146.212 177.542C147.038 177.08 147.934 176.849 148.9 176.849C149.53 176.849 150.055 176.968 150.475 177.206C150.895 177.43 151.231 177.752 151.483 178.172C151.735 178.578 151.91 179.061 152.008 179.621C152.12 180.181 152.176 180.79 152.176 181.448V188ZM158.893 188.21C158.011 188.21 157.143 188.077 156.289 187.811C155.435 187.531 154.7 187.132 154.084 186.614L154.882 185.375C155.526 185.865 156.17 186.236 156.814 186.488C157.458 186.726 158.137 186.845 158.851 186.845C159.649 186.845 160.279 186.691 160.741 186.383C161.217 186.061 161.455 185.613 161.455 185.039C161.455 184.773 161.392 184.549 161.266 184.367C161.14 184.171 160.951 184.003 160.699 183.863C160.447 183.723 160.125 183.597 159.733 183.485C159.341 183.373 158.886 183.254 158.368 183.128C157.71 182.96 157.143 182.799 156.667 182.645C156.191 182.491 155.799 182.309 155.491 182.099C155.183 181.889 154.959 181.637 154.819 181.343C154.679 181.049 154.609 180.685 154.609 180.251C154.609 179.705 154.714 179.222 154.924 178.802C155.148 178.368 155.449 178.011 155.827 177.731C156.205 177.437 156.646 177.22 157.15 177.08C157.668 176.926 158.221 176.849 158.809 176.849C159.635 176.849 160.405 176.982 161.119 177.248C161.833 177.514 162.435 177.864 162.925 178.298L162.085 179.411C161.623 179.005 161.105 178.704 160.531 178.508C159.957 178.298 159.369 178.193 158.767 178.193C158.095 178.193 157.521 178.34 157.045 178.634C156.583 178.914 156.352 179.369 156.352 179.999C156.352 180.251 156.394 180.461 156.478 180.629C156.576 180.797 156.73 180.944 156.94 181.07C157.15 181.196 157.416 181.308 157.738 181.406C158.074 181.504 158.473 181.609 158.935 181.721C159.663 181.889 160.293 182.064 160.825 182.246C161.371 182.414 161.819 182.617 162.169 182.855C162.533 183.093 162.799 183.373 162.967 183.695C163.149 184.017 163.24 184.409 163.24 184.871C163.24 185.893 162.848 186.705 162.064 187.307C161.28 187.909 160.223 188.21 158.893 188.21ZM166.015 188V178.487H164.524V177.038H166.015V176.807C166.015 175.449 166.316 174.385 166.918 173.615C167.52 172.845 168.339 172.46 169.375 172.46C169.809 172.46 170.236 172.523 170.656 172.649C171.076 172.761 171.454 172.922 171.79 173.132L171.328 174.497C171.132 174.357 170.887 174.245 170.593 174.161C170.313 174.077 170.033 174.035 169.753 174.035C169.137 174.035 168.668 174.266 168.346 174.728C168.024 175.19 167.863 175.862 167.863 176.744V177.038H170.782V178.487H167.863V188H166.015ZM177.23 188.21C176.404 188.21 175.648 188.063 174.962 187.769C174.276 187.461 173.688 187.048 173.198 186.53C172.708 186.012 172.323 185.41 172.043 184.724C171.777 184.024 171.644 183.289 171.644 182.519C171.644 181.749 171.777 181.021 172.043 180.335C172.323 179.649 172.708 179.047 173.198 178.529C173.702 178.011 174.297 177.605 174.983 177.311C175.669 177.003 176.425 176.849 177.251 176.849C178.077 176.849 178.826 177.003 179.498 177.311C180.184 177.619 180.765 178.032 181.241 178.55C181.717 179.054 182.081 179.649 182.333 180.335C182.599 181.007 182.732 181.707 182.732 182.435C182.732 182.589 182.725 182.729 182.711 182.855C182.711 182.981 182.704 183.079 182.69 183.149H173.597C173.639 183.695 173.765 184.192 173.975 184.64C174.185 185.088 174.458 185.473 174.794 185.795C175.13 186.117 175.508 186.369 175.928 186.551C176.362 186.733 176.817 186.824 177.293 186.824C177.629 186.824 177.958 186.782 178.28 186.698C178.602 186.6 178.903 186.474 179.183 186.32C179.463 186.166 179.708 185.977 179.918 185.753C180.142 185.529 180.31 185.277 180.422 184.997L182.018 185.438C181.836 185.844 181.584 186.215 181.262 186.551C180.954 186.887 180.59 187.181 180.17 187.433C179.764 187.671 179.309 187.86 178.805 188C178.301 188.14 177.776 188.21 177.23 188.21ZM180.989 181.784C180.947 181.266 180.814 180.79 180.59 180.356C180.38 179.908 180.107 179.53 179.771 179.222C179.449 178.914 179.071 178.676 178.637 178.508C178.203 178.326 177.741 178.235 177.251 178.235C176.761 178.235 176.299 178.326 175.865 178.508C175.431 178.676 175.046 178.921 174.71 179.243C174.388 179.551 174.122 179.922 173.912 180.356C173.716 180.79 173.597 181.266 173.555 181.784H180.989ZM190.582 178.655C189.658 178.683 188.839 178.921 188.125 179.369C187.425 179.817 186.928 180.44 186.634 181.238V188H184.786V177.038H186.508V179.579C186.886 178.823 187.383 178.214 187.999 177.752C188.615 177.276 189.273 177.01 189.973 176.954C190.113 176.954 190.232 176.954 190.33 176.954C190.428 176.954 190.512 176.961 190.582 176.975V178.655Z" fill="#232323"/>
<path d="M18.3564 235.921C18.3564 236.858 18.1611 237.732 17.7705 238.543C17.3896 239.344 16.8281 240.037 16.0859 240.623C15.3437 241.209 14.4355 241.668 13.3613 242C12.2969 242.332 11.0762 242.498 9.69922 242.498C8.23438 242.498 6.9502 242.332 5.84668 242C4.74316 241.658 3.83984 241.199 3.13672 240.623C2.44336 240.047 1.93066 239.368 1.59863 238.587C1.2666 237.806 1.10059 236.98 1.10059 236.111C1.10059 234.861 1.44238 233.821 2.12598 232.991C2.81934 232.161 3.82031 231.468 5.12891 230.911V230.823C3.84961 230.198 2.95605 229.441 2.44824 228.553C1.94043 227.664 1.68652 226.673 1.68652 225.579C1.68652 224.778 1.8623 224.026 2.21387 223.323C2.56543 222.62 3.09277 221.99 3.7959 221.434C4.45996 220.906 5.2998 220.486 6.31543 220.174C7.34082 219.852 8.48828 219.69 9.75781 219.69C11.1055 219.69 12.2773 219.837 13.2734 220.13C14.2793 220.413 15.1045 220.789 15.749 221.258C16.4131 221.736 16.9209 222.317 17.2725 223.001C17.624 223.675 17.7998 224.407 17.7998 225.198C17.7998 226.233 17.4971 227.171 16.8916 228.011C16.2959 228.841 15.3779 229.539 14.1377 230.105V230.193C15.583 230.779 16.6475 231.551 17.3311 232.508C18.0146 233.455 18.3564 234.593 18.3564 235.921ZM12.4971 225.843C12.4971 225.101 12.2529 224.51 11.7646 224.07C11.2764 223.621 10.6123 223.396 9.77246 223.396C8.97168 223.396 8.32227 223.597 7.82422 223.997C7.33594 224.397 7.0918 224.891 7.0918 225.477C7.0918 226.062 7.23828 226.536 7.53125 226.897C7.83398 227.249 8.29785 227.576 8.92285 227.879C9.19629 228.016 9.51855 228.157 9.88965 228.304C10.2705 228.45 10.7734 228.641 11.3984 228.875C11.7793 228.377 12.0576 227.898 12.2334 227.439C12.4092 226.971 12.4971 226.438 12.4971 225.843ZM12.9512 236.155C12.9512 235.442 12.7998 234.896 12.4971 234.515C12.1943 234.134 11.5449 233.704 10.5488 233.226C10.2656 233.089 9.85547 232.918 9.31836 232.713C8.79102 232.508 8.32227 232.317 7.91211 232.142C7.53125 232.522 7.18945 232.996 6.88672 233.562C6.59375 234.119 6.44727 234.734 6.44727 235.408C6.44727 236.424 6.76953 237.234 7.41406 237.84C8.05859 238.445 8.9082 238.748 9.96289 238.748C10.2461 238.748 10.5684 238.704 10.9297 238.616C11.3008 238.519 11.6279 238.372 11.9111 238.177C12.2236 237.952 12.4727 237.688 12.6582 237.386C12.8535 237.083 12.9512 236.673 12.9512 236.155ZM37.7656 236.917H34.8213V242.059H29.5332V236.917H19.9385V232.845L29.3574 220.188H34.8213V232.991H37.7656V236.917ZM29.5332 232.991V225.564L24.0107 232.991H29.5332ZM56.3398 231.087C56.3398 232.972 56.1885 234.622 55.8857 236.038C55.583 237.454 55.0996 238.636 54.4355 239.583C53.7715 240.53 52.9072 241.248 51.8428 241.736C50.7783 242.215 49.4746 242.454 47.9316 242.454C46.3984 242.454 45.0996 242.215 44.0352 241.736C42.9707 241.248 42.1016 240.521 41.4277 239.554C40.7637 238.597 40.2803 237.42 39.9775 236.023C39.6748 234.617 39.5234 232.977 39.5234 231.102C39.5234 229.168 39.6699 227.518 39.9629 226.15C40.2656 224.783 40.7637 223.606 41.457 222.62C42.1406 221.653 43.0195 220.936 44.0938 220.467C45.168 219.988 46.4473 219.749 47.9316 219.749C49.5039 219.749 50.8125 219.998 51.8574 220.496C52.9121 220.984 53.7764 221.717 54.4502 222.693C55.1143 223.65 55.5928 224.832 55.8857 226.238C56.1885 227.645 56.3398 229.261 56.3398 231.087ZM50.8467 231.087C50.8467 228.392 50.6221 226.502 50.1729 225.418C49.7334 224.324 48.9863 223.777 47.9316 223.777C46.8867 223.777 46.1396 224.324 45.6904 225.418C45.2412 226.502 45.0166 228.401 45.0166 231.116C45.0166 233.772 45.2412 235.657 45.6904 236.771C46.1396 237.874 46.8867 238.426 47.9316 238.426C48.9766 238.426 49.7236 237.874 50.1729 236.771C50.6221 235.657 50.8467 233.763 50.8467 231.087ZM74.7529 242H60.3389V238.191H64.9385V226.663H60.3389V223.104C61.0127 223.104 61.6816 223.06 62.3457 222.972C63.0098 222.884 63.542 222.742 63.9424 222.547C64.4111 222.312 64.7725 222 65.0264 221.609C65.29 221.209 65.4414 220.716 65.4805 220.13H70.2559V238.191H74.7529V242ZM96.6963 234.412H86.9844V230.34H96.6963V234.412ZM124.382 242H109.968V238.191H114.567V226.663H109.968V223.104C110.642 223.104 111.311 223.06 111.975 222.972C112.639 222.884 113.171 222.742 113.571 222.547C114.04 222.312 114.401 222 114.655 221.609C114.919 221.209 115.07 220.716 115.109 220.13H119.885V238.191H124.382V242ZM144.172 231.087C144.172 232.972 144.021 234.622 143.718 236.038C143.415 237.454 142.932 238.636 142.268 239.583C141.604 240.53 140.739 241.248 139.675 241.736C138.61 242.215 137.307 242.454 135.764 242.454C134.23 242.454 132.932 242.215 131.867 241.736C130.803 241.248 129.934 240.521 129.26 239.554C128.596 238.597 128.112 237.42 127.81 236.023C127.507 234.617 127.355 232.977 127.355 231.102C127.355 229.168 127.502 227.518 127.795 226.15C128.098 224.783 128.596 223.606 129.289 222.62C129.973 221.653 130.852 220.936 131.926 220.467C133 219.988 134.279 219.749 135.764 219.749C137.336 219.749 138.645 219.998 139.689 220.496C140.744 220.984 141.608 221.717 142.282 222.693C142.946 223.65 143.425 224.832 143.718 226.238C144.021 227.645 144.172 229.261 144.172 231.087ZM138.679 231.087C138.679 228.392 138.454 226.502 138.005 225.418C137.565 224.324 136.818 223.777 135.764 223.777C134.719 223.777 133.972 224.324 133.522 225.418C133.073 226.502 132.849 228.401 132.849 231.116C132.849 233.772 133.073 235.657 133.522 236.771C133.972 237.874 134.719 238.426 135.764 238.426C136.809 238.426 137.556 237.874 138.005 236.771C138.454 235.657 138.679 233.763 138.679 231.087ZM162.585 242H148.171V238.191H152.771V226.663H148.171V223.104C148.845 223.104 149.514 223.06 150.178 222.972C150.842 222.884 151.374 222.742 151.774 222.547C152.243 222.312 152.604 222 152.858 221.609C153.122 221.209 153.273 220.716 153.312 220.13H158.088V238.191H162.585V242ZM182.082 229.871C182.082 231.727 181.867 233.426 181.438 234.969C181.008 236.512 180.339 237.835 179.431 238.938C178.493 240.062 177.326 240.926 175.93 241.531C174.543 242.127 172.839 242.425 170.817 242.425C170.134 242.425 169.421 242.381 168.679 242.293C167.937 242.205 167.443 242.127 167.199 242.059V237.767H167.624C167.897 237.903 168.283 238.05 168.781 238.206C169.289 238.362 169.987 238.44 170.876 238.44C171.589 238.44 172.277 238.348 172.941 238.162C173.605 237.967 174.177 237.664 174.655 237.254C175.153 236.824 175.568 236.287 175.9 235.643C176.232 234.998 176.457 234.192 176.574 233.226C175.793 233.714 175.065 234.09 174.392 234.354C173.728 234.607 172.897 234.734 171.901 234.734C171.149 234.734 170.427 234.637 169.733 234.441C169.05 234.236 168.425 233.924 167.858 233.504C167.106 232.918 166.511 232.166 166.071 231.248C165.632 230.32 165.412 229.124 165.412 227.659C165.412 226.526 165.603 225.481 165.983 224.524C166.374 223.558 166.926 222.718 167.639 222.005C168.342 221.302 169.206 220.75 170.231 220.35C171.257 219.949 172.399 219.749 173.659 219.749C174.929 219.749 176.057 219.93 177.043 220.291C178.029 220.643 178.874 221.185 179.577 221.917C180.397 222.747 181.018 223.816 181.438 225.125C181.867 226.434 182.082 228.016 182.082 229.871ZM176.662 229.051C176.662 227.869 176.56 226.897 176.354 226.136C176.159 225.364 175.881 224.764 175.52 224.334C175.266 224.021 174.978 223.797 174.655 223.66C174.343 223.523 174.001 223.455 173.63 223.455C173.308 223.455 172.99 223.523 172.678 223.66C172.375 223.787 172.082 224.012 171.799 224.334C171.545 224.617 171.33 225.032 171.154 225.579C170.979 226.126 170.891 226.727 170.891 227.381C170.891 228.084 170.979 228.665 171.154 229.124C171.34 229.573 171.589 229.935 171.901 230.208C172.214 230.472 172.57 230.657 172.971 230.765C173.371 230.872 173.815 230.926 174.304 230.926C174.714 230.926 175.134 230.872 175.563 230.765C176.003 230.647 176.354 230.53 176.618 230.413C176.618 230.306 176.623 230.154 176.633 229.959C176.652 229.754 176.662 229.451 176.662 229.051ZM201.271 224.524L191.984 242H185.891L195.632 224.305H185.231V220.188H201.271V224.524ZM219.89 242H205.476V238.191H210.075V226.663H205.476V223.104C206.149 223.104 206.818 223.06 207.482 222.972C208.146 222.884 208.679 222.742 209.079 222.547C209.548 222.312 209.909 222 210.163 221.609C210.427 221.209 210.578 220.716 210.617 220.13H215.393V238.191H219.89V242ZM239.958 242H223.933V238.44C225.29 237.366 226.506 236.351 227.58 235.394C228.664 234.437 229.616 233.528 230.437 232.669C231.501 231.546 232.272 230.56 232.751 229.71C233.229 228.86 233.469 227.986 233.469 227.088C233.469 226.072 233.166 225.296 232.561 224.759C231.955 224.212 231.11 223.938 230.026 223.938C229.47 223.938 228.942 224.007 228.444 224.144C227.956 224.28 227.458 224.456 226.95 224.671C226.452 224.896 226.027 225.125 225.676 225.359C225.324 225.594 225.061 225.77 224.885 225.887H224.46V221.126C225.075 220.833 226.037 220.535 227.346 220.232C228.654 219.92 229.914 219.764 231.125 219.764C233.713 219.764 235.671 220.34 236.999 221.492C238.337 222.645 239.006 224.266 239.006 226.355C239.006 227.645 238.703 228.909 238.098 230.149C237.492 231.38 236.486 232.703 235.08 234.119C234.201 234.988 233.347 235.765 232.517 236.448C231.687 237.122 231.086 237.601 230.715 237.884H239.958V242Z" fill="#801014"/>
<g clip-path="url(#clip0)">
<path d="M184.963 12.4508V12.2344H184.238H53.689H52.9644V12.4508C48.6932 12.7444 45.5066 16.1426 45 20.267V20.993V107.018C45 108.686 45.4341 110.092 46.1586 111.358C47.8255 114.293 50.2862 115.776 53.6892 115.776H101.333V127.794H92.2821C90.0377 127.794 88.2999 129.54 88.2999 131.779C88.2999 134.019 90.0377 135.765 92.2821 135.765H145.646C147.89 135.765 149.701 134.019 149.701 131.779C149.701 129.539 147.89 127.794 145.646 127.794H136.595V115.776H184.238C187.643 115.776 190.125 114.293 191.769 111.358C192.515 110.03 193 108.609 193 107.018V20.9932V20.2672C192.493 16.1426 189.09 12.7444 184.963 12.4508ZM184.963 20.9932V107.018C184.963 107.528 184.747 107.744 184.238 107.744H53.689C53.1823 107.744 52.9644 107.528 52.9644 107.018V20.9932V20.2672H184.963V20.9932H184.963Z" fill="#801014"/>
<g clip-path="url(#clip1)">
<path d="M112.58 30.7393L113.828 32.6849C118.392 29.826 124.188 29.826 128.752 32.6849L130 30.7393C124.691 27.3395 117.889 27.3395 112.58 30.7393Z" fill="#801014"/>
<path d="M107.427 44.3633H105.116C105.113 46.5009 105.536 48.6176 106.362 50.5896L108.495 49.6976C107.787 48.0085 107.424 46.1948 107.427 44.3633Z" fill="#801014"/>
<path d="M126.62 57.1621C124.932 57.8695 123.121 58.232 121.291 58.2285V60.5392C123.427 60.5433 125.543 60.1203 127.514 59.2949L126.62 57.1621Z" fill="#801014"/>
<path d="M135.155 44.3633C135.158 46.1935 134.796 48.006 134.089 49.6941L136.222 50.5861C137.047 48.6155 137.47 46.4997 137.466 44.3633H135.155V44.3633Z" fill="#801014"/>
<path d="M121.292 32.8086C114.911 32.8086 109.738 37.9813 109.738 44.3623C109.738 50.7432 114.911 55.9159 121.292 55.9159C127.67 55.9088 132.839 50.7403 132.846 44.3623C132.846 37.9815 127.673 32.8086 121.292 32.8086ZM121.292 53.6052C116.187 53.6052 112.049 49.467 112.049 44.3623C112.049 39.2576 116.187 35.1193 121.292 35.1193C126.397 35.1193 130.535 39.2576 130.535 44.3623C130.529 49.4646 126.394 53.5996 121.292 53.6052Z" fill="#801014"/>
<path d="M123.832 43.9953L122.446 43.5331V40.5685C123.089 40.793 123.542 41.374 123.601 42.0531H125.912C125.809 40.1033 124.37 38.4843 122.446 38.1526V37.4316H120.135V38.1526C118.211 38.4843 116.772 40.1033 116.669 42.0531C116.714 43.3003 117.552 44.3791 118.749 44.7324L120.135 45.1945V48.1569C119.492 47.9326 119.04 47.3528 118.98 46.6746H116.669C116.772 48.6244 118.211 50.2433 120.135 50.5751V51.296H122.446V50.5751C124.37 50.2433 125.809 48.6244 125.912 46.6746C125.867 45.4274 125.029 44.3487 123.832 43.9953ZM120.135 42.7637L119.476 42.5418C119.184 42.4436 118.98 42.2426 118.98 42.0531C119.039 41.374 119.492 40.793 120.135 40.5685V42.7637ZM122.446 48.1592V45.964L123.104 46.1858C123.397 46.2841 123.601 46.4851 123.601 46.6746C123.542 47.3536 123.089 47.9346 122.446 48.1592Z" fill="#801014"/>
<path d="M152.148 75.8969L148.343 72.0923L152.148 68.2877C152.599 67.8365 152.599 67.1052 152.148 66.654L137.128 51.6343C136.677 51.1832 135.945 51.1832 135.494 51.6343L120.713 66.4149L104.778 50.4789C104.326 50.0279 103.595 50.0279 103.144 50.4789L88.1241 65.4987C87.673 65.9498 87.673 66.6812 88.1241 67.1323L96.5501 75.5584H83.1641V77.8692H98.1838C98.3404 77.8696 98.4953 77.8377 98.639 77.7756L106.508 74.4031H123.602V79.0245H110.893C110.255 79.0245 109.737 79.5417 109.737 80.1799C109.737 80.6306 110 81.0402 110.409 81.229L125.429 88.1612C125.806 88.333 126.248 88.289 126.584 88.0456L146.594 73.6059L149.636 76.6479L126.64 96.355H120.343L98.5836 88.3391C98.4556 88.2919 98.3203 88.2676 98.1838 88.2675H83.1641V90.5782H97.977L119.736 98.5941C119.864 98.6415 119.999 98.6656 120.136 98.6657H127.068C127.344 98.666 127.61 98.5673 127.819 98.3873L152.082 77.5907C152.566 77.1755 152.623 76.4462 152.207 75.9616C152.188 75.9394 152.168 75.9177 152.148 75.8969ZM106.271 72.0923C106.115 72.0919 105.96 72.1237 105.816 72.1859L105.535 72.3014C106.676 69.3411 110.001 67.866 112.961 69.0068C114.402 69.5621 115.559 70.6743 116.171 72.0923H106.271V72.0923ZM118.64 72.0923C117.628 68.6592 114.472 66.3057 110.893 66.3155C106.804 66.34 103.369 69.3937 102.864 73.451L99.256 74.9969L90.5746 66.3155L103.961 52.9294L123.124 72.0923H118.64ZM125.784 85.78L116.153 81.3353H124.757C125.395 81.3353 125.913 80.8179 125.913 80.1799V74.8814L132.186 81.155L125.784 85.78ZM126.021 71.7226C126.459 69.2563 128.607 67.4621 131.112 67.4709C133.977 67.4657 136.304 69.7839 136.309 72.6489C136.314 75.1558 134.525 77.3072 132.059 77.7606L126.021 71.7226ZM133.934 79.6334C134.398 79.4454 134.841 79.2108 135.258 78.9345L134.083 79.7824L133.934 79.6334ZM145.959 71.2085L135.778 78.5624C139.022 75.9775 139.556 71.2525 136.971 68.009C134.386 64.7654 129.661 64.2314 126.418 66.8163C125.414 67.6163 124.632 68.6603 124.146 69.8486L122.347 68.0485L136.311 54.0848L149.697 67.4709L145.959 71.2085Z" fill="#801014"/>
</g>
</g>
<defs>
<clipPath id="clip0">
<rect width="148" height="148" fill="white" transform="translate(45)"/>
</clipPath>
<clipPath id="clip1">
<rect width="70.4762" height="70.4762" fill="white" transform="translate(82.5869 28.1895)"/>
</clipPath>
</defs>
</svg>
