<svg width="439" height="90" viewBox="0 0 439 90" fill="none" xmlns="http://www.w3.org/2000/svg">
<g filter="url(#filter0_d)">
<g clip-path="url(#clip0)">
<path d="M158.079 15.6997C160.785 12.7853 163.621 10.1628 166.744 7.72804C167.111 7.44182 167.64 7.78453 167.517 8.23011C165.767 14.5797 162.709 20.8548 157.994 25.5197C157.783 22.254 157.78 18.9611 158.079 15.6997Z" fill="white"/>
<path d="M157.994 25.5219C155.272 22.2799 152.934 18.9281 150.826 15.3093C150.585 14.8956 149.944 15.0431 149.92 15.5199C149.54 22.9326 152.409 31.606 159.4 35.1043C158.703 31.952 158.201 28.7441 157.994 25.5219Z" fill="white"/>
<path d="M159.4 35.102C161.113 31.6233 163.031 28.3868 165.278 25.2497C165.544 24.8775 166.142 25.0481 166.162 25.5036C166.436 31.9069 165.322 38.6757 162.214 44.2966C161.062 41.3048 160.09 38.2317 159.4 35.102Z" fill="white"/>
<path d="M162.214 44.2989C158.68 42.0569 155.451 39.6057 152.354 36.8521C151.997 36.5345 151.437 36.8662 151.558 37.3254C153.423 44.4058 158.759 51.6716 166.354 52.9549C164.775 50.172 163.361 47.2833 162.214 44.2989Z" fill="white"/>
<path d="M166.354 52.9529C166.973 49.1578 167.858 45.5375 169.091 41.9181C169.237 41.4877 169.857 41.4794 170.01 41.9076C172.166 47.9149 173.039 54.6923 171.739 60.9208C169.762 58.395 167.933 55.7407 166.354 52.9529Z" fill="white"/>
<path d="M171.74 60.9225C167.711 59.7959 163.905 58.387 160.136 56.6601C159.701 56.4605 159.264 56.9388 159.515 57.3427C163.391 63.5811 170.646 68.9821 178.289 68.0514C175.943 65.8329 173.726 63.463 171.74 60.9225Z" fill="white"/>
<path d="M178.287 68.0503C177.737 64.2267 177.504 60.4973 177.612 56.6638C177.624 56.2094 178.215 56.0233 178.488 56.389C182.348 61.5545 185.228 67.8292 185.917 74.1907C183.233 72.3288 180.656 70.2936 178.287 68.0503Z" fill="white"/>
<path d="M195.342 77.6794C192.258 76.1782 189.438 74.5449 186.962 72.8255C186.962 72.825 186.961 72.8248 186.96 72.8244C186.96 72.8241 186.96 72.8237 186.959 72.8235C184.196 70.9066 181.704 68.902 179.553 66.8649C179.552 66.8645 179.552 66.8638 179.551 66.8634C177.136 64.5803 174.997 62.2515 173.191 59.9413C173.191 59.9407 173.19 59.94 173.189 59.9394C173.189 59.9391 173.189 59.9389 173.189 59.9387C171.152 57.3364 169.392 54.733 167.958 52.2002C167.957 52.1989 167.956 52.1978 167.956 52.1965C166.329 49.3284 164.976 46.5017 163.936 43.7944C163.935 43.7933 163.935 43.7924 163.935 43.7915V43.7913C162.746 40.7047 161.827 37.7006 161.201 34.8623C161.201 34.8618 161.201 34.8616 161.201 34.8614C160.483 31.6113 160.023 28.4816 159.835 25.5599C159.835 25.5584 159.835 25.5571 159.835 25.5558C159.617 22.1909 159.644 18.9837 159.916 16.0233C159.919 15.9875 159.919 15.9519 159.92 15.9163C160.279 11.3384 161.138 6.74959 162.476 2.27462C162.745 1.37488 162.224 0.4303 161.313 0.164752C160.401 -0.101015 159.444 0.412934 159.175 1.31311C157.754 6.06461 156.845 10.9401 156.475 15.8041C156.473 15.8373 156.473 15.8699 156.473 15.9026C156.201 18.985 156.175 22.3039 156.4 25.7734C156.4 25.7741 156.4 25.7745 156.4 25.7752C156.599 28.8648 157.082 32.1622 157.836 35.5762C157.837 35.5789 157.837 35.5817 157.837 35.5844C158.499 38.5872 159.468 41.7546 160.717 44.9981C160.717 44.9986 160.717 44.999 160.717 44.9994C161.818 47.8633 163.243 50.8435 164.953 53.857C164.953 53.8575 164.953 53.8579 164.953 53.8584C164.954 53.8595 164.955 53.8603 164.955 53.8612C164.955 53.8612 164.955 53.8612 164.955 53.8614C166.472 56.5389 168.326 59.2823 170.465 62.0156C170.466 62.0167 170.467 62.0174 170.468 62.0185C172.377 64.4601 174.63 66.9142 177.166 69.3122C177.167 69.3129 177.167 69.3135 177.168 69.3142C179.445 71.4709 182.074 73.5867 184.981 75.6032C184.981 75.6034 184.982 75.6036 184.982 75.6038C187.603 77.4242 190.577 79.1476 193.82 80.7264C194.065 80.8455 194.324 80.902 194.58 80.902C195.214 80.902 195.825 80.554 196.124 79.9544C196.545 79.1129 196.194 78.0944 195.342 77.6794Z" fill="white"/>
<path d="M186.798 14.5215V32.7538H184.568V10.435H186.288L201.256 29.013V10.4664H203.486V32.7538H201.543L186.798 14.5215ZM218.278 32.9109C216.706 32.9109 215.263 32.5966 213.946 31.9679C212.651 31.3183 211.537 30.4696 210.602 29.4217C209.668 28.3529 208.946 27.1375 208.437 25.7752C207.927 24.413 207.672 23.0195 207.672 21.5944C207.672 20.1065 207.938 18.6814 208.469 17.3192C209.021 15.9571 209.774 14.7521 210.73 13.7042C211.685 12.6564 212.811 11.8286 214.106 11.2209C215.401 10.5922 216.802 10.2778 218.309 10.2778C219.881 10.2778 221.314 10.6131 222.609 11.2837C223.925 11.9334 225.04 12.7926 225.953 13.8614C226.887 14.9302 227.609 16.1457 228.118 17.5079C228.628 18.8491 228.883 20.2217 228.883 21.6258C228.883 23.1138 228.607 24.5387 228.055 25.901C227.524 27.2632 226.781 28.4681 225.825 29.516C224.891 30.5428 223.777 31.3706 222.481 31.9993C221.186 32.6071 219.785 32.9109 218.278 32.9109ZM209.902 21.5944C209.902 22.8098 210.104 23.9834 210.507 25.1151C210.91 26.2259 211.483 27.2212 212.227 28.1014C212.97 28.9607 213.851 29.6523 214.87 30.1761C215.889 30.6791 217.025 30.9305 218.278 30.9305C219.551 30.9305 220.709 30.6582 221.749 30.1132C222.789 29.5683 223.671 28.8558 224.392 27.9757C225.114 27.0955 225.666 26.1001 226.048 24.9894C226.452 23.8786 226.653 22.7469 226.653 21.5944C226.653 20.3789 226.441 19.2158 226.017 18.1051C225.613 16.9735 225.04 15.978 224.297 15.1188C223.554 14.2596 222.673 13.5785 221.653 13.0755C220.634 12.5516 219.509 12.2897 218.278 12.2897C217.004 12.2897 215.847 12.5621 214.806 13.107C213.766 13.6309 212.885 14.3329 212.163 15.2131C211.441 16.0933 210.878 17.0887 210.475 18.1994C210.093 19.3101 209.902 20.4418 209.902 21.5944ZM235.315 14.5215V32.7538H233.086V10.435H234.806L249.774 29.013V10.4664H252.003V32.7538H250.061L235.315 14.5215Z" fill="white"/>
<path d="M189.172 52.9774V37.3699H195.875C196.603 37.3699 197.271 37.5238 197.88 37.8316C198.503 38.1246 199.038 38.5203 199.483 39.0186C199.929 39.5022 200.278 40.059 200.53 40.6893C200.782 41.3048 200.909 41.9275 200.909 42.5578C200.909 43.2173 200.79 43.862 200.552 44.4922C200.315 45.1077 199.981 45.6573 199.55 46.1409C199.12 46.6245 198.6 47.013 197.991 47.306C197.382 47.599 196.714 47.7456 195.987 47.7456H192.245V52.9774H189.172ZM192.245 45.0858H195.809C196.373 45.0858 196.84 44.8587 197.212 44.4043C197.598 43.9499 197.791 43.3344 197.791 42.5578C197.791 42.1621 197.731 41.8104 197.613 41.5026C197.494 41.1801 197.338 40.9091 197.145 40.6893C196.952 40.4694 196.722 40.3083 196.454 40.2057C196.202 40.0885 195.942 40.0298 195.675 40.0298H192.245V45.0858ZM211.043 44.0086C210.137 44.0233 209.328 44.1992 208.615 44.5362C207.903 44.8587 207.391 45.3495 207.079 46.009V52.9774H204.094V41.4587H206.834V43.9207C207.042 43.525 207.287 43.1733 207.569 42.8655C207.851 42.543 208.155 42.2647 208.482 42.0302C208.808 41.7956 209.135 41.6198 209.462 41.5026C209.803 41.3707 210.13 41.3048 210.442 41.3048C210.605 41.3048 210.724 41.3048 210.798 41.3048C210.887 41.3048 210.969 41.312 211.043 41.3268V44.0086ZM218.846 53.1973C217.895 53.1973 217.042 53.0361 216.284 52.7137C215.527 52.3912 214.881 51.959 214.347 51.4167C213.827 50.8599 213.426 50.2224 213.144 49.5042C212.862 48.7861 212.721 48.0314 212.721 47.24C212.721 46.4339 212.862 45.672 213.144 44.9539C213.426 44.2357 213.827 43.6057 214.347 43.0634C214.881 42.5066 215.527 42.0669 216.284 41.7444C217.042 41.4219 217.895 41.2608 218.846 41.2608C219.796 41.2608 220.642 41.4219 221.385 41.7444C222.142 42.0669 222.78 42.5066 223.3 43.0634C223.834 43.6057 224.243 44.2357 224.525 44.9539C224.807 45.672 224.948 46.4339 224.948 47.24C224.948 48.0314 224.807 48.7861 224.525 49.5042C224.243 50.2224 223.842 50.8599 223.322 51.4167C222.802 51.959 222.164 52.3912 221.407 52.7137C220.65 53.0361 219.796 53.1973 218.846 53.1973ZM215.795 47.24C215.795 47.7529 215.869 48.222 216.017 48.6469C216.18 49.0573 216.396 49.4163 216.663 49.724C216.945 50.0318 217.272 50.2736 217.643 50.4495C218.014 50.6106 218.415 50.6913 218.846 50.6913C219.276 50.6913 219.677 50.6106 220.048 50.4495C220.42 50.2736 220.739 50.0318 221.006 49.724C221.288 49.4163 221.503 49.0498 221.652 48.6249C221.815 48.2 221.897 47.7309 221.897 47.2181C221.897 46.7197 221.815 46.2581 221.652 45.8332C221.503 45.4082 221.288 45.0418 221.006 44.734C220.739 44.4263 220.42 44.1917 220.048 44.0306C219.677 43.8547 219.276 43.7668 218.846 43.7668C218.415 43.7668 218.014 43.8547 217.643 44.0306C217.272 44.2065 216.945 44.4483 216.663 44.756C216.396 45.0638 216.18 45.4302 216.017 45.8551C215.869 46.2801 215.795 46.7417 215.795 47.24ZM228.837 44.3164H227.3V42.0742H228.837V41.3707C228.837 40.7405 228.941 40.1397 229.149 39.5682C229.372 38.9966 229.683 38.5058 230.084 38.0953C230.5 37.6704 230.997 37.3332 231.576 37.0841C232.17 36.8351 232.838 36.7104 233.581 36.7104C234.427 36.7104 235.199 36.8496 235.897 37.1281C236.61 37.3919 237.278 37.7289 237.901 38.1393L236.721 40.3376C236.335 40.0006 235.882 39.7293 235.362 39.5242C234.843 39.3191 234.316 39.2164 233.781 39.2164C233.113 39.2164 232.616 39.4215 232.289 39.832C231.977 40.2424 231.821 40.7185 231.821 41.2608V42.0742H238.079V52.9774H235.095V44.3164H231.821V52.9774H228.837V44.3164ZM249.112 52.3839C248.711 52.5598 248.221 52.7356 247.642 52.9115C247.063 53.0874 246.454 53.1753 245.815 53.1753C245.4 53.1753 245.006 53.1241 244.635 53.0214C244.279 52.9188 243.96 52.7576 243.677 52.5378C243.41 52.3032 243.195 52.0102 243.032 51.6585C242.868 51.2921 242.787 50.8524 242.787 50.3396V43.7228H241.25V41.4587H242.787V37.7216H245.771V41.4587H248.221V43.7228H245.771V49.3503C245.771 49.7608 245.875 50.0538 246.083 50.2296C246.305 50.3908 246.573 50.4715 246.884 50.4715C247.196 50.4715 247.501 50.4202 247.798 50.3176C248.094 50.2149 248.332 50.127 248.51 50.0538L249.112 52.3839Z" fill="white"/>
<path d="M278.978 15.6997C276.271 12.7853 273.435 10.1628 270.313 7.72804C269.945 7.44182 269.417 7.78453 269.54 8.23011C271.29 14.5797 274.348 20.8548 279.062 25.5197C279.274 22.254 279.277 18.9611 278.978 15.6997Z" fill="white"/>
<path d="M279.06 25.5219C281.782 22.2799 284.121 18.9281 286.228 15.3093C286.469 14.8956 287.11 15.0431 287.134 15.5199C287.515 22.9326 284.645 31.606 277.654 35.1043C278.351 31.952 278.853 28.7441 279.06 25.5219Z" fill="white"/>
<path d="M277.655 35.102C275.942 31.6233 274.025 28.3868 271.777 25.2497C271.511 24.8775 270.913 25.0481 270.893 25.5036C270.62 31.9069 271.733 38.6757 274.841 44.2966C275.994 41.3048 276.966 38.2317 277.655 35.102Z" fill="white"/>
<path d="M274.84 44.2989C278.374 42.0569 281.602 39.6057 284.699 36.8521C285.056 36.5345 285.617 36.8662 285.496 37.3254C283.63 44.4058 278.295 51.6716 270.699 52.9549C272.278 50.172 273.693 47.2833 274.84 44.2989Z" fill="white"/>
<path d="M270.702 52.9529C270.083 49.1578 269.198 45.5375 267.965 41.9181C267.818 41.4877 267.199 41.4794 267.045 41.9076C264.89 47.9149 264.016 54.6923 265.317 60.9208C267.294 58.395 269.123 55.7407 270.702 52.9529Z" fill="white"/>
<path d="M265.314 60.9225C269.343 59.7959 273.149 58.387 276.918 56.6601C277.354 56.4605 277.79 56.9388 277.539 57.3427C273.664 63.5811 266.408 68.9821 258.766 68.0514C261.112 65.8329 263.328 63.463 265.314 60.9225Z" fill="white"/>
<path d="M258.767 68.0503C259.317 64.2267 259.55 60.4973 259.442 56.6638C259.429 56.2094 258.839 56.0233 258.565 56.389C254.705 61.5545 251.826 67.8292 251.137 74.1907C253.821 72.3288 256.398 70.2936 258.767 68.0503Z" fill="white"/>
<path d="M280.582 15.9027C280.581 15.8699 280.582 15.8376 280.579 15.8046C280.209 10.9397 279.301 6.06398 277.879 1.31336C277.61 0.413841 276.654 -0.0992291 275.742 0.165219C274.83 0.430768 274.309 1.37557 274.578 2.27531C275.917 6.74918 276.775 11.3378 277.135 15.9161C277.136 15.9519 277.136 15.9877 277.139 16.0238C277.411 18.9831 277.438 22.1905 277.22 25.5567C277.22 25.5573 277.22 25.558 277.22 25.5584C277.22 25.5591 277.22 25.5595 277.22 25.5602C277.032 28.4806 276.572 31.61 275.854 34.8616C275.854 34.8618 275.854 34.8623 275.854 34.8625C275.229 37.7009 274.309 40.705 273.12 43.7913C273.12 43.7918 273.12 43.792 273.12 43.7924C273.12 43.7933 273.119 43.794 273.119 43.7946C272.078 46.5018 270.725 49.3294 269.097 52.1996C269.097 52.1998 269.097 52.2003 269.097 52.2005C267.663 54.7326 265.903 57.336 263.865 59.939C263.865 59.9396 263.864 59.9403 263.864 59.9409C263.864 59.9412 263.864 59.9412 263.864 59.9414C262.058 62.2506 259.918 64.5794 257.503 66.8634C257.503 66.8639 257.502 66.8645 257.502 66.865C255.351 68.9014 252.859 70.9062 250.095 72.8235C250.094 72.824 250.094 72.8246 250.093 72.8253C250.093 72.8253 250.092 72.8255 250.092 72.8255C247.616 74.5454 244.797 76.1785 241.712 77.6794C240.86 78.0942 240.509 79.1127 240.93 79.954C241.229 80.5541 241.84 80.9018 242.475 80.9018C242.73 80.9018 242.989 80.8453 243.234 80.7262C246.477 79.1479 249.45 77.4247 252.071 75.6045C252.072 75.6039 252.073 75.6036 252.074 75.603C254.981 73.5859 257.61 71.4701 259.887 69.314C259.887 69.3134 259.888 69.3127 259.888 69.312C262.425 66.9124 264.68 64.4579 266.588 62.0165C266.588 62.0165 266.588 62.0163 266.589 62.0161C266.589 62.0159 266.589 62.0156 266.589 62.0154C268.73 59.2804 270.584 56.5359 272.101 53.8582C272.102 53.8564 272.103 53.8547 272.104 53.8529C273.813 50.8396 275.237 47.8607 276.337 44.9995C276.337 44.9993 276.337 44.9993 276.337 44.9988C276.337 44.9986 276.337 44.9986 276.337 44.9982C277.585 41.7564 278.554 38.5909 279.215 35.5895C279.215 35.5888 279.216 35.5884 279.216 35.5877C279.972 32.1679 280.456 28.8666 280.654 25.775C280.654 25.7725 280.654 25.7704 280.654 25.7682C280.879 22.2993 280.854 18.9822 280.582 15.9027Z" fill="white"/>
</g>
<g clip-path="url(#clip1)">
<path d="M10.8569 25.9071C13.1222 23.4427 15.4959 21.2252 18.1095 19.1664C18.4169 18.9244 18.8594 19.2142 18.7565 19.591C17.2916 24.96 14.732 30.2661 10.7863 34.2107C10.609 31.4493 10.6064 28.6648 10.8569 25.9071Z" fill="white"/>
<path d="M10.786 34.2127C8.50792 31.4714 6.55025 28.637 4.78646 25.5771C4.58476 25.2273 4.04828 25.352 4.02778 25.7552C3.70958 32.0233 6.11126 39.3571 11.9626 42.3152C11.3795 39.6497 10.9594 36.9373 10.786 34.2127Z" fill="white"/>
<path d="M11.9629 42.3133C13.3966 39.3718 15.0013 36.6351 16.8824 33.9825C17.1055 33.6678 17.606 33.812 17.6222 34.1972C17.8513 39.6116 16.9197 45.3351 14.318 50.088C13.3535 47.5582 12.54 44.9597 11.9629 42.3133Z" fill="white"/>
<path d="M14.3179 50.09C11.3598 48.1942 8.65759 46.1215 6.06558 43.7932C5.76659 43.5246 5.29759 43.8051 5.39881 44.1934C6.96034 50.1803 11.4259 56.3242 17.7836 57.4093C16.462 55.0561 15.2781 52.6135 14.3179 50.09Z" fill="white"/>
<path d="M17.7832 57.4073C18.3014 54.1983 19.0426 51.137 20.0743 48.0766C20.197 47.7126 20.7154 47.7056 20.844 48.0676C22.6485 53.1473 23.3794 58.8781 22.2907 64.1448C20.6358 62.009 19.1048 59.7646 17.7832 57.4073Z" fill="white"/>
<path d="M22.292 64.1464C18.9201 63.1938 15.7343 62.0023 12.5794 60.542C12.2149 60.3732 11.8496 60.7779 12.0597 61.1194C15.3035 66.3944 21.3767 70.9612 27.7734 70.1742C25.8097 68.2983 23.9542 66.2946 22.292 64.1464Z" fill="white"/>
<path d="M27.7703 70.1732C27.3103 66.94 27.1147 63.7866 27.2051 60.5451C27.2157 60.1609 27.7101 60.0034 27.939 60.3127C31.1698 64.6805 33.5801 69.9862 34.1568 75.3653C31.9103 73.7909 29.7531 72.0701 27.7703 70.1732Z" fill="white"/>
<path d="M42.0461 78.3157C39.4645 77.0463 37.1048 75.6652 35.0321 74.2113C35.0315 74.2109 35.0312 74.2108 35.0306 74.2104C35.0302 74.2102 35.0301 74.2098 35.0297 74.2096C32.7165 72.5888 30.631 70.8938 28.8303 69.1712C28.8299 69.1709 28.8295 69.1703 28.8292 69.1699C26.8079 67.2394 25.0169 65.2702 23.5055 63.3168C23.5052 63.3163 23.5046 63.3157 23.5042 63.3151C23.504 63.315 23.504 63.3148 23.5039 63.3146C21.799 61.1142 20.3258 58.9128 19.1253 56.7711C19.1247 56.77 19.124 56.7691 19.1234 56.768C17.7619 54.3428 16.6299 51.9526 15.759 49.6633C15.7586 49.6624 15.7582 49.6617 15.7578 49.6609V49.6607C14.7632 47.0508 13.9935 44.5106 13.4699 42.1106C13.4699 42.1102 13.4697 42.11 13.4697 42.1098C12.8685 39.3616 12.4839 36.7153 12.3268 34.2448C12.3268 34.2435 12.3264 34.2423 12.3264 34.2412C12.1437 31.396 12.1665 28.6839 12.3941 26.1807C12.3969 26.1504 12.3969 26.1203 12.3976 26.0902C12.6981 22.2193 13.4167 18.3391 14.537 14.5552C14.7622 13.7944 14.3262 12.9957 13.5632 12.7711C12.8007 12.5464 11.9993 12.981 11.7741 13.7422C10.5846 17.7599 9.82427 21.8825 9.51427 25.9954C9.51222 26.0235 9.51278 26.051 9.51222 26.0787C9.28443 28.6851 9.26299 31.4915 9.45145 34.4252C9.45145 34.4258 9.45145 34.4262 9.45145 34.4267C9.61773 37.0392 10.022 39.8274 10.6534 42.7143C10.654 42.7165 10.6542 42.7189 10.6545 42.7212C11.2083 45.2603 12.0192 47.9386 13.0648 50.6812C13.065 50.6816 13.065 50.6819 13.0652 50.6823C13.9866 53.1039 15.1792 55.6239 16.6101 58.1721C16.6103 58.1725 16.6105 58.1728 16.6107 58.1732C16.6112 58.1741 16.6116 58.1749 16.6121 58.1756C16.6121 58.1756 16.6121 58.1756 16.6123 58.1758C17.882 60.4398 19.4334 62.7596 21.2241 65.0708C21.2248 65.0717 21.2256 65.0722 21.2261 65.0732C22.8238 67.1377 24.7101 69.2129 26.8327 71.2406C26.8333 71.2412 26.8337 71.2417 26.8342 71.2423C28.7403 73.0659 30.9404 74.855 33.3738 76.5601C33.3742 76.5602 33.3744 76.5604 33.3747 76.5606C35.5684 78.0999 38.0573 79.5572 40.772 80.8921C40.977 80.9929 41.1942 81.0407 41.408 81.0407C41.9391 81.0407 42.4502 80.7464 42.701 80.2393C43.0527 79.5278 42.7595 78.6666 42.0461 78.3157Z" fill="white"/>
<path d="M34.8952 24.9106V40.3274H33.0293V21.4552H34.4687L46.9973 37.1644V21.4817H48.8632V40.3274H47.2372L34.8952 24.9106ZM61.2441 40.4604C59.929 40.4604 58.7207 40.1945 57.6188 39.6629C56.5348 39.1135 55.6019 38.3958 54.8199 37.5099C54.0379 36.6062 53.4338 35.5783 53.0072 34.4266C52.5807 33.2747 52.3675 32.0962 52.3675 30.8913C52.3675 29.6331 52.5897 28.4281 53.0339 27.2763C53.496 26.1245 54.1268 25.1056 54.9265 24.2195C55.7262 23.3335 56.6681 22.6336 57.7521 22.1197C58.8361 21.5881 60.0089 21.3223 61.2707 21.3223C62.5859 21.3223 63.7854 21.6058 64.8694 22.1728C65.9712 22.7222 66.9042 23.4487 67.6683 24.3524C68.4503 25.2562 69.0544 26.284 69.4809 27.4358C69.9074 28.5699 70.1207 29.7306 70.1207 30.9178C70.1207 32.176 69.8897 33.381 69.4276 34.5329C68.9834 35.6846 68.3613 36.7036 67.5617 37.5897C66.7797 38.4579 65.8467 39.1579 64.7627 39.6895C63.6788 40.2033 62.5059 40.4604 61.2441 40.4604ZM54.2334 30.8913C54.2334 31.9191 54.4023 32.9115 54.7399 33.8684C55.0775 34.8074 55.5573 35.6493 56.1794 36.3935C56.8014 37.1199 57.5388 37.7047 58.3918 38.1478C59.2449 38.5731 60.1955 38.7858 61.2441 38.7858C62.3103 38.7858 63.2789 38.5553 64.1496 38.0947C65.0203 37.6339 65.758 37.0315 66.3621 36.2872C66.9663 35.5429 67.4284 34.7011 67.7482 33.7621C68.0858 32.8228 68.2547 31.8659 68.2547 30.8913C68.2547 29.8635 68.0771 28.88 67.7216 27.9408C67.384 26.9839 66.9042 26.1422 66.2821 25.4157C65.6601 24.6891 64.9227 24.1132 64.0697 23.6879C63.2167 23.2449 62.2747 23.0234 61.2441 23.0234C60.1778 23.0234 59.2092 23.2538 58.3385 23.7145C57.4678 24.1575 56.7302 24.7512 56.1261 25.4954C55.5219 26.2397 55.0508 27.0814 54.7133 28.0206C54.3934 28.9597 54.2334 29.9166 54.2334 30.8913ZM75.5047 24.9106V40.3274H73.6388V21.4552H75.0782L87.6067 37.1644V21.4817H89.4727V40.3274H87.8466L75.5047 24.9106Z" fill="white"/>
<path d="M33.1133 55.1976V45.9594H37.2105C37.6369 45.9594 38.0283 46.0505 38.3849 46.2327C38.7503 46.4061 39.0634 46.6403 39.3244 46.9353C39.5854 47.2216 39.7899 47.5511 39.9377 47.9242C40.0855 48.2885 40.1595 48.6571 40.1595 49.0302C40.1595 49.6287 40.0072 50.1752 39.7028 50.6696C39.407 51.1553 39.0025 51.5066 38.4893 51.7235L40.6032 55.1976H38.5806L36.6886 52.1009H34.914V55.1976H33.1133ZM34.914 50.5265H37.1714C37.3367 50.5265 37.4888 50.4874 37.6281 50.4094C37.7759 50.3313 37.9021 50.2272 38.0065 50.0971C38.1109 49.9582 38.1935 49.7978 38.2544 49.6157C38.3154 49.4335 38.3458 49.2383 38.3458 49.0302C38.3458 48.8132 38.3109 48.6138 38.2414 48.4316C38.1719 48.2495 38.076 48.0933 37.9543 47.9632C37.8412 47.8244 37.7064 47.7203 37.5498 47.6509C37.402 47.5729 37.2497 47.5338 37.0931 47.5338H34.914V50.5265ZM44.6011 55.3277C44.053 55.3277 43.5572 55.2366 43.1135 55.0545C42.6699 54.8636 42.2915 54.6076 41.9783 54.2868C41.6651 53.9658 41.4217 53.5927 41.2476 53.1678C41.0824 52.7427 40.9997 52.296 40.9997 51.8276C40.9997 51.3417 41.0824 50.8863 41.2476 50.4614C41.4129 50.0276 41.6521 49.6502 41.9653 49.3294C42.2784 48.9997 42.6568 48.7394 43.1005 48.5487C43.5529 48.3578 44.0575 48.2625 44.6141 48.2625C45.1709 48.2625 45.6668 48.3578 46.1017 48.5487C46.5453 48.7394 46.9194 48.9954 47.2239 49.3164C47.537 49.6372 47.7719 50.0103 47.9285 50.4354C48.0938 50.8603 48.1764 51.3027 48.1764 51.7626C48.1764 51.8752 48.1721 51.9838 48.1634 52.0879C48.1634 52.1919 48.1548 52.2786 48.1373 52.3481H42.8526C42.8787 52.6169 42.9439 52.8555 43.0483 53.0637C43.1527 53.2719 43.2876 53.4496 43.4528 53.5972C43.6182 53.7446 43.8051 53.8574 44.0139 53.9355C44.2227 54.0136 44.4402 54.0526 44.6663 54.0526C45.0143 54.0526 45.3406 53.9701 45.645 53.8054C45.9581 53.6318 46.1714 53.4063 46.2844 53.1288L47.7849 53.5451C47.5327 54.0656 47.1282 54.495 46.5714 54.8333C46.0234 55.1628 45.3667 55.3277 44.6011 55.3277ZM46.3757 51.2161C46.3323 50.7042 46.1408 50.2965 45.8016 49.993C45.4711 49.6807 45.0665 49.5246 44.588 49.5246C44.3532 49.5246 44.1313 49.5679 43.9226 49.6547C43.7225 49.7328 43.5441 49.8454 43.3876 49.993C43.231 50.1404 43.1005 50.3183 42.9961 50.5265C42.9005 50.7347 42.844 50.9644 42.8265 51.2161H46.3757ZM49.2287 45.6992H50.9772V53.0117C50.9772 53.2632 51.038 53.4583 51.1599 53.5972C51.2816 53.7358 51.4555 53.8054 51.6818 53.8054C51.7862 53.8054 51.8992 53.7879 52.0211 53.7533C52.1516 53.7186 52.2733 53.6753 52.3864 53.6232L52.6213 54.9504C52.3864 55.063 52.1124 55.1498 51.7992 55.2106C51.4861 55.2712 51.2033 55.3017 50.9511 55.3017C50.403 55.3017 49.9767 55.1586 49.6723 54.8723C49.3765 54.5773 49.2287 54.161 49.2287 53.6232V45.6992ZM53.383 55.1976V48.3796H55.1315V55.1976H53.383ZM53.383 47.4297V45.6992H55.1315V47.4297H53.383ZM59.3838 55.2366C58.9228 55.2366 58.5053 55.1455 58.1312 54.9634C57.7572 54.7812 57.431 54.534 57.1525 54.2217C56.883 53.9007 56.6742 53.5321 56.5262 53.1158C56.3784 52.6994 56.3044 52.257 56.3044 51.7886C56.3044 51.2942 56.3827 50.8343 56.5392 50.4094C56.6958 49.9843 56.9134 49.6112 57.1917 49.2904C57.4702 48.9694 57.805 48.7179 58.1964 48.5357C58.5879 48.3536 59.0185 48.2625 59.4882 48.2625C60.0189 48.2625 60.4844 48.3839 60.8844 48.6268C61.2846 48.861 61.6152 49.1776 61.8761 49.5766V48.3796H63.4028V54.8723C63.4028 55.3753 63.3072 55.8264 63.1157 56.2255C62.9245 56.6244 62.659 56.9627 62.3198 57.2404C61.9893 57.5179 61.5891 57.7304 61.1193 57.878C60.6583 58.0254 60.1537 58.0992 59.6057 58.0992C58.8576 58.0992 58.227 57.9733 57.7136 57.7218C57.2092 57.4789 56.7741 57.1318 56.4088 56.6809L57.3613 55.7571C57.6223 56.0779 57.9485 56.3296 58.34 56.5118C58.7402 56.6939 59.162 56.785 59.6057 56.785C59.8754 56.785 60.1321 56.746 60.3755 56.6679C60.6279 56.5984 60.8498 56.4857 61.041 56.3296C61.2325 56.1735 61.3803 55.9738 61.4847 55.7311C61.5978 55.4881 61.6543 55.2019 61.6543 54.8723V54.0136C61.4282 54.4039 61.1107 54.7074 60.7017 54.9244C60.293 55.1325 59.8536 55.2366 59.3838 55.2366ZM59.971 53.8444C60.1625 53.8444 60.3451 53.8139 60.5191 53.7533C60.6932 53.6925 60.854 53.6102 61.0019 53.5061C61.1499 53.402 61.2804 53.2804 61.3933 53.1418C61.5065 53.0029 61.5935 52.8555 61.6543 52.6994V51.073C61.4977 50.6739 61.2498 50.3529 60.9105 50.1101C60.58 49.8672 60.232 49.7458 59.8666 49.7458C59.5971 49.7458 59.3535 49.8064 59.1359 49.9279C58.9186 50.0406 58.7314 50.1967 58.5748 50.3964C58.4182 50.5871 58.2965 50.8083 58.2095 51.0599C58.1312 51.3114 58.092 51.5717 58.092 51.8406C58.092 52.1182 58.1399 52.3784 58.2356 52.6213C58.3314 52.8641 58.4619 53.0767 58.627 53.2589C58.8011 53.441 59.0011 53.5842 59.2273 53.6883C59.4536 53.7924 59.7015 53.8444 59.971 53.8444ZM64.9789 55.1976V48.3796H66.7274V55.1976H64.9789ZM64.9789 47.4297V45.6992H66.7274V47.4297H64.9789ZM71.4626 55.3277C70.9059 55.3277 70.4056 55.2322 69.962 55.0415C69.5183 54.8506 69.1399 54.5946 68.8267 54.2738C68.5223 53.944 68.2875 53.5667 68.1221 53.1418C67.957 52.7167 67.8742 52.27 67.8742 51.8016C67.8742 51.3245 67.957 50.8733 68.1221 50.4484C68.2875 50.0233 68.5223 49.6502 68.8267 49.3294C69.1399 48.9997 69.5183 48.7394 69.962 48.5487C70.4056 48.3578 70.9059 48.2625 71.4626 48.2625C72.0194 48.2625 72.5152 48.3578 72.9501 48.5487C73.3937 48.7394 73.7679 48.9997 74.0723 49.3294C74.3854 49.6502 74.6248 50.0233 74.7899 50.4484C74.9553 50.8733 75.0379 51.3245 75.0379 51.8016C75.0379 52.27 74.9553 52.7167 74.7899 53.1418C74.6248 53.5667 74.3899 53.944 74.0853 54.2738C73.7809 54.5946 73.4068 54.8506 72.9631 55.0415C72.5195 55.2322 72.0194 55.3277 71.4626 55.3277ZM69.6749 51.8016C69.6749 52.1051 69.7185 52.3827 69.8054 52.6343C69.9012 52.8771 70.0272 53.0897 70.1838 53.2719C70.3491 53.4541 70.5406 53.5972 70.7579 53.7013C70.9755 53.7966 71.2103 53.8444 71.4626 53.8444C71.715 53.8444 71.9498 53.7966 72.1672 53.7013C72.3847 53.5972 72.5717 53.4541 72.7283 53.2719C72.8936 53.0897 73.0198 52.8728 73.1067 52.6213C73.2025 52.3696 73.2502 52.0921 73.2502 51.7886C73.2502 51.4936 73.2025 51.2204 73.1067 50.9689C73.0198 50.7172 72.8936 50.5005 72.7283 50.3183C72.5717 50.1361 72.3847 49.9973 72.1672 49.9019C71.9498 49.7978 71.715 49.7458 71.4626 49.7458C71.2103 49.7458 70.9755 49.7978 70.7579 49.9019C70.5406 50.006 70.3491 50.1491 70.1838 50.3313C70.0272 50.5135 69.9012 50.7302 69.8054 50.9819C69.7185 51.2334 69.6749 51.5066 69.6749 51.8016ZM78.3058 55.3277C77.6012 55.3277 77.0662 55.1021 76.7008 54.6511C76.3355 54.2 76.1528 53.5321 76.1528 52.6473V48.3796H77.9013V52.27C77.9013 53.3195 78.2797 53.8444 79.0365 53.8444C79.3758 53.8444 79.702 53.7446 80.0152 53.5451C80.3371 53.337 80.5981 53.0247 80.7981 52.6083V48.3796H82.5466V53.1938C82.5466 53.376 82.5772 53.5061 82.6379 53.5842C82.7076 53.6622 82.8163 53.7056 82.9641 53.7143V55.1976C82.7902 55.2322 82.6424 55.2539 82.5205 55.2627C82.4075 55.2712 82.3031 55.2757 82.2073 55.2757C81.8942 55.2757 81.6377 55.2061 81.4375 55.0675C81.2462 54.9199 81.1331 54.7204 81.0982 54.469L81.0591 53.9225C80.7546 54.3909 80.3632 54.7422 79.8847 54.9764C79.4064 55.2106 78.8799 55.3277 78.3058 55.3277ZM86.8679 55.3277C86.2938 55.3277 85.7327 55.2366 85.1846 55.0545C84.6366 54.8723 84.1669 54.6121 83.7754 54.2738L84.4278 53.1808C84.8454 53.4756 85.2499 53.7013 85.6413 53.8574C86.0416 54.0048 86.4373 54.0786 86.8288 54.0786C87.1768 54.0786 87.4508 54.0135 87.6508 53.8834C87.8508 53.7533 87.9509 53.5667 87.9509 53.3239C87.9509 53.081 87.8335 52.9031 87.5986 52.7905C87.3638 52.6776 86.9811 52.5475 86.4504 52.4001C86.0067 52.2786 85.6283 52.1615 85.3151 52.0488C85.002 51.936 84.7498 51.8102 84.5583 51.6715C84.3669 51.5239 84.2278 51.3592 84.1408 51.177C84.0537 50.9862 84.0103 50.7607 84.0103 50.5005C84.0103 50.1534 84.0755 49.8411 84.206 49.5636C84.3452 49.2859 84.5365 49.0517 84.7801 48.861C85.0238 48.6614 85.3064 48.5097 85.6283 48.4056C85.9588 48.3015 86.3156 48.2495 86.6983 48.2495C87.2115 48.2495 87.69 48.3231 88.1336 48.4707C88.586 48.6181 88.9991 48.8565 89.3732 49.1863L88.6686 50.2402C88.3206 49.98 87.9813 49.7891 87.6508 49.6677C87.3289 49.5462 87.0072 49.4856 86.6852 49.4856C86.3894 49.4856 86.1415 49.5462 85.9415 49.6677C85.7414 49.7891 85.6413 49.9843 85.6413 50.2532C85.6413 50.3746 85.6632 50.4744 85.7066 50.5525C85.7588 50.6306 85.8371 50.6999 85.9415 50.7607C86.0459 50.8213 86.1806 50.8821 86.346 50.9428C86.5199 50.9949 86.7331 51.0512 86.9854 51.112C87.4551 51.2334 87.8553 51.3547 88.1858 51.4763C88.5251 51.5977 88.7991 51.7365 89.0079 51.8927C89.2254 52.0488 89.382 52.231 89.4776 52.4392C89.582 52.6386 89.6342 52.8816 89.6342 53.1678C89.6342 53.8357 89.3863 54.3649 88.8904 54.7552C88.3946 55.1368 87.7204 55.3277 86.8679 55.3277Z" fill="white"/>
<path d="M112.05 25.9071C109.784 23.4427 107.411 21.2252 104.797 19.1664C104.49 18.9244 104.047 19.2142 104.15 19.591C105.615 24.96 108.175 30.2661 112.12 34.2107C112.297 31.4493 112.3 28.6648 112.05 25.9071Z" fill="white"/>
<path d="M112.12 34.2127C114.398 31.4714 116.356 28.637 118.12 25.5771C118.321 25.2273 118.858 25.352 118.878 25.7552C119.196 32.0233 116.795 39.3571 110.943 42.3152C111.526 39.6497 111.947 36.9373 112.12 34.2127Z" fill="white"/>
<path d="M110.943 42.3133C109.509 39.3718 107.904 36.6351 106.023 33.9825C105.8 33.6678 105.3 33.812 105.283 34.1972C105.054 39.6116 105.986 45.3351 108.588 50.088C109.552 47.5582 110.366 44.9597 110.943 42.3133Z" fill="white"/>
<path d="M108.587 50.09C111.545 48.1942 114.247 46.1215 116.839 43.7932C117.138 43.5246 117.607 43.8051 117.506 44.1934C115.944 50.1803 111.479 56.3242 105.121 57.4093C106.443 55.0561 107.627 52.6135 108.587 50.09Z" fill="white"/>
<path d="M105.124 57.4073C104.605 54.1983 103.864 51.137 102.832 48.0766C102.71 47.7126 102.191 47.7056 102.063 48.0676C100.258 53.1473 99.5274 58.8781 100.616 64.1448C102.271 62.009 103.802 59.7646 105.124 57.4073Z" fill="white"/>
<path d="M100.614 64.1464C103.986 63.1938 107.172 62.0023 110.327 60.542C110.691 60.3732 111.056 60.7779 110.846 61.1194C107.603 66.3944 101.529 70.9612 95.1328 70.1742C97.0964 68.2983 98.9519 66.2946 100.614 64.1464Z" fill="white"/>
<path d="M95.1346 70.1732C95.5947 66.94 95.7902 63.7866 95.6998 60.5451C95.6892 60.1609 95.1948 60.0034 94.9659 60.3127C91.7351 64.6805 89.3248 69.9862 88.748 75.3653C90.9946 73.7909 93.1518 72.0701 95.1346 70.1732Z" fill="white"/>
<path d="M113.393 26.0784C113.392 26.0507 113.393 26.0233 113.39 25.9955C113.08 21.8818 112.32 17.759 111.131 13.742C110.905 12.9814 110.105 12.5476 109.341 12.7712C108.578 12.9957 108.143 13.7946 108.368 14.5554C109.488 18.3384 110.206 22.2184 110.507 26.0897C110.508 26.12 110.508 26.1503 110.511 26.1808C110.738 28.6831 110.761 31.3953 110.579 34.2417C110.579 34.2422 110.579 34.2428 110.579 34.2431C110.579 34.2437 110.578 34.2441 110.578 34.2446C110.421 36.714 110.037 39.3602 109.435 42.1097C109.435 42.1099 109.435 42.1102 109.435 42.1104C108.912 44.5105 108.142 47.0507 107.147 49.6604C107.147 49.6608 107.147 49.661 107.147 49.6614C107.147 49.6621 107.146 49.6627 107.146 49.6632C106.275 51.9523 105.143 54.3432 103.78 56.7703C103.78 56.7704 103.78 56.7708 103.779 56.771C102.579 58.9121 101.106 61.1135 99.4007 63.3145C99.4003 63.315 99.4 63.3156 99.3996 63.3161C99.3994 63.3163 99.3994 63.3163 99.3992 63.3165C97.8884 65.2692 96.097 67.2383 94.0756 69.1696C94.0752 69.17 94.0748 69.1705 94.0744 69.1709C92.2745 70.8929 90.1886 72.5881 87.8749 74.2093C87.8743 74.2097 87.8737 74.2103 87.873 74.2108C87.8728 74.2108 87.8726 74.211 87.8724 74.211C85.7998 75.6653 83.44 77.0462 80.8585 78.3154C80.1449 78.6661 79.8517 79.5273 80.2036 80.2386C80.4543 80.7461 80.9653 81.0402 81.4965 81.0402C81.7103 81.0402 81.9275 80.9924 82.1324 80.8916C84.8467 79.557 87.3352 78.0999 89.5289 76.5609C89.5296 76.5603 89.5304 76.5601 89.5311 76.5596C91.9649 74.854 94.165 73.0649 96.0705 71.2418C96.0711 71.2412 96.0714 71.2407 96.072 71.2401C98.1956 69.2111 100.082 67.1356 101.68 65.0712C101.68 65.0712 101.68 65.071 101.68 65.0708C101.68 65.0706 101.68 65.0705 101.681 65.0703C103.472 62.7576 105.025 60.4369 106.294 58.1727C106.295 58.1712 106.296 58.1697 106.296 58.1682C107.727 55.6202 108.919 53.1014 109.839 50.682C109.839 50.6818 109.839 50.6818 109.839 50.6814C109.839 50.6813 109.84 50.6813 109.84 50.6809C110.885 47.9398 111.695 45.2631 112.249 42.7251C112.249 42.7246 112.249 42.7242 112.249 42.7236C112.882 39.8319 113.287 37.0404 113.453 34.4262C113.453 34.4242 113.453 34.4223 113.453 34.4205C113.642 31.4873 113.62 28.6823 113.393 26.0784Z" fill="white"/>
</g>
<g clip-path="url(#clip2)">
<path d="M325.705 25.9511C327.994 23.4934 330.392 21.2819 333.034 19.2287C333.344 18.9873 333.791 19.2763 333.687 19.6521C332.207 25.0066 329.621 30.2983 325.633 34.2321C325.454 31.4782 325.452 28.7013 325.705 25.9511Z" fill="white"/>
<path d="M325.633 34.2341C323.331 31.5002 321.352 28.6736 319.57 25.622C319.366 25.2731 318.824 25.3975 318.803 25.7996C318.482 32.0506 320.909 39.3647 326.822 42.3147C326.233 39.6565 325.808 36.9513 325.633 34.2341Z" fill="white"/>
<path d="M326.822 42.3128C328.271 39.3792 329.893 36.6499 331.794 34.0045C332.019 33.6906 332.525 33.8345 332.541 34.2186C332.773 39.6183 331.831 45.3264 329.202 50.0664C328.228 47.5435 327.405 44.9519 326.822 42.3128Z" fill="white"/>
<path d="M329.201 50.0683C326.212 48.1776 323.481 46.1105 320.862 43.7885C320.56 43.5207 320.086 43.8004 320.188 44.1876C321.766 50.1584 326.279 56.2855 332.703 57.3677C331.368 55.0209 330.171 52.5849 329.201 50.0683Z" fill="white"/>
<path d="M332.703 57.3661C333.227 54.1658 333.976 51.1129 335.018 48.0607C335.142 47.6977 335.666 47.6907 335.796 48.0518C337.62 53.1177 338.358 58.8329 337.258 64.0853C335.586 61.9554 334.039 59.717 332.703 57.3661Z" fill="white"/>
<path d="M337.258 64.087C333.85 63.137 330.631 61.9489 327.443 60.4926C327.075 60.3243 326.705 60.7277 326.918 61.0682C330.196 66.3289 336.333 70.8836 342.797 70.0987C340.813 68.2279 338.938 66.2294 337.258 64.087Z" fill="white"/>
<path d="M342.796 70.0972C342.331 66.8728 342.134 63.7279 342.225 60.4952C342.236 60.112 342.735 59.955 342.966 60.2635C346.231 64.6194 348.667 69.9107 349.25 75.2753C346.98 73.7052 344.8 71.989 342.796 70.0972Z" fill="white"/>
<path d="M357.223 78.2179C354.614 76.952 352.229 75.5746 350.135 74.1246C350.134 74.1243 350.134 74.1241 350.133 74.1237C350.133 74.1235 350.133 74.1232 350.132 74.123C347.795 72.5065 345.687 70.8161 343.868 69.0982C343.867 69.0979 343.867 69.0973 343.867 69.0969C341.824 67.1716 340.014 65.2078 338.487 63.2597C338.486 63.2591 338.486 63.2586 338.486 63.258C338.485 63.2578 338.485 63.2576 338.485 63.2575C336.762 61.063 335.274 58.8676 334.061 56.7317C334.06 56.7306 334.059 56.7297 334.059 56.7286C332.683 54.31 331.539 51.9263 330.659 49.6432C330.658 49.6423 330.658 49.6415 330.658 49.6408V49.6406C329.652 47.0378 328.875 44.5044 328.346 42.1109C328.346 42.1105 328.345 42.1103 328.345 42.1101C327.738 39.3694 327.349 36.7302 327.19 34.2664C327.19 34.2651 327.19 34.264 327.19 34.2629C327.005 31.4254 327.028 28.7207 327.258 26.2243C327.261 26.1941 327.261 26.1641 327.262 26.134C327.566 22.2736 328.292 18.4039 329.424 14.6303C329.652 13.8715 329.211 13.075 328.44 12.851C327.669 12.6269 326.859 13.0603 326.632 13.8194C325.43 17.8263 324.662 21.9377 324.348 26.0395C324.346 26.0675 324.347 26.0949 324.346 26.1225C324.116 28.7219 324.094 31.5206 324.285 34.4464C324.285 34.447 324.285 34.4473 324.285 34.4479C324.453 37.0533 324.861 39.8339 325.499 42.713C325.5 42.7152 325.5 42.7176 325.501 42.7198C326.06 45.252 326.88 47.9231 327.936 50.6583C327.936 50.6587 327.936 50.659 327.937 50.6594C328.868 53.0745 330.073 55.5876 331.519 58.1289C331.519 58.1293 331.519 58.1296 331.519 58.13C331.52 58.1309 331.52 58.1317 331.521 58.1324C331.521 58.1324 331.521 58.1324 331.521 58.1326C332.804 60.3905 334.372 62.7039 336.181 65.0089C336.182 65.0098 336.183 65.0103 336.183 65.0113C337.798 67.0702 339.704 69.1397 341.849 71.162C341.85 71.1626 341.85 71.1631 341.851 71.1637C343.777 72.9824 346 74.7666 348.459 76.467C348.459 76.4672 348.46 76.4674 348.46 76.4676C350.677 78.0027 353.192 79.456 355.935 80.7874C356.142 80.8878 356.362 80.9355 356.578 80.9355C357.114 80.9355 357.631 80.642 357.884 80.1363C358.24 79.4267 357.943 78.5679 357.223 78.2179Z" fill="white"/>
<path d="M349.995 24.9576V40.3325H348.109V21.5114H349.564L362.224 37.178V21.538H364.11V40.3325H362.467L349.995 24.9576ZM376.621 40.465C375.292 40.465 374.071 40.2 372.958 39.6698C371.862 39.122 370.92 38.4063 370.129 37.5226C369.339 36.6213 368.729 35.5964 368.298 34.4476C367.867 33.2988 367.651 32.1238 367.651 30.922C367.651 29.6672 367.876 28.4655 368.325 27.3168C368.792 26.1681 369.429 25.152 370.237 24.2683C371.045 23.3847 371.997 22.6867 373.092 22.1742C374.188 21.644 375.373 21.3789 376.648 21.3789C377.977 21.3789 379.189 21.6617 380.285 22.2272C381.398 22.775 382.341 23.4996 383.113 24.4009C383.903 25.3022 384.514 26.3272 384.945 27.4759C385.376 28.6069 385.591 29.7644 385.591 30.9485C385.591 32.2033 385.358 33.4049 384.891 34.5536C384.442 35.7024 383.813 36.7184 383.005 37.6021C382.215 38.468 381.272 39.1661 380.177 39.6963C379.081 40.2088 377.896 40.465 376.621 40.465ZM369.537 30.922C369.537 31.9469 369.707 32.9366 370.049 33.8909C370.39 34.8276 370.875 35.667 371.503 36.4092C372.132 37.1339 372.877 37.7171 373.739 38.1588C374.601 38.5829 375.562 38.795 376.621 38.795C377.699 38.795 378.677 38.5653 379.557 38.1058C380.437 37.6462 381.183 37.0454 381.793 36.3032C382.404 35.561 382.871 34.7216 383.194 33.7849C383.535 32.8482 383.706 31.8939 383.706 30.922C383.706 29.897 383.526 28.9162 383.167 27.9795C382.826 27.0252 382.341 26.1858 381.712 25.4612C381.084 24.7366 380.338 24.1623 379.476 23.7382C378.614 23.2964 377.663 23.0755 376.621 23.0755C375.544 23.0755 374.565 23.3052 373.685 23.7647C372.805 24.2065 372.06 24.7985 371.449 25.5407C370.839 26.283 370.363 27.1224 370.022 28.0591C369.698 28.9957 369.537 29.95 369.537 30.922ZM391.032 24.9576V40.3325H389.146V21.5114H390.601L403.261 37.178V21.538H405.147V40.3325H403.504L391.032 24.9576Z" fill="white"/>
<path d="M348.146 57.0163V46.487H352.682C353.175 46.487 353.627 46.5908 354.039 46.7985C354.461 46.9963 354.822 47.2632 355.124 47.5993C355.425 47.9255 355.661 48.3013 355.832 48.7263C356.003 49.1416 356.088 49.5618 356.088 49.9869C356.088 50.4318 356.008 50.8669 355.847 51.2919C355.686 51.7072 355.46 52.0779 355.169 52.4042C354.878 52.7304 354.526 52.9924 354.114 53.1902C353.702 53.388 353.25 53.4868 352.758 53.4868H350.226V57.0163H348.146ZM350.226 51.6923H352.637C353.019 51.6923 353.336 51.539 353.587 51.2326C353.848 50.9262 353.978 50.5109 353.978 49.9869C353.978 49.72 353.938 49.4827 353.858 49.2751C353.777 49.0576 353.672 48.8746 353.541 48.7263C353.411 48.578 353.255 48.4692 353.074 48.4001C352.903 48.3209 352.728 48.2815 352.547 48.2815H350.226V51.6923ZM360.854 57.1646C360.211 57.1646 359.634 57.0558 359.121 56.8383C358.609 56.6209 358.172 56.3291 357.81 55.9634C357.458 55.5876 357.187 55.1575 356.996 54.6732C356.805 54.1888 356.71 53.6795 356.71 53.1457C356.71 52.602 356.805 52.0877 356.996 51.6034C357.187 51.119 357.458 50.6937 357.81 50.328C358.172 49.9522 358.609 49.6556 359.121 49.4382C359.634 49.2207 360.211 49.1119 360.854 49.1119C361.497 49.1119 362.07 49.2207 362.572 49.4382C363.084 49.6556 363.516 49.9522 363.868 50.328C364.23 50.6937 364.506 51.119 364.697 51.6034C364.888 52.0877 364.983 52.602 364.983 53.1457C364.983 53.6795 364.888 54.1888 364.697 54.6732C364.506 55.1575 364.235 55.5876 363.883 55.9634C363.531 56.3291 363.1 56.6209 362.587 56.8383C362.075 57.0558 361.497 57.1646 360.854 57.1646ZM358.79 53.1457C358.79 53.4918 358.84 53.808 358.94 54.0948C359.051 54.3716 359.197 54.6138 359.377 54.8215C359.568 55.0291 359.789 55.1922 360.04 55.3108C360.292 55.4197 360.563 55.474 360.854 55.474C361.145 55.474 361.417 55.4197 361.668 55.3108C361.919 55.1922 362.135 55.0291 362.316 54.8215C362.507 54.6138 362.652 54.3667 362.753 54.08C362.863 53.7932 362.919 53.4769 362.919 53.1308C362.919 52.7948 362.863 52.4833 362.753 52.1966C362.652 51.9098 362.507 51.6627 362.316 51.4551C362.135 51.2474 361.919 51.0893 361.668 50.9805C361.417 50.8619 361.145 50.8025 360.854 50.8025C360.563 50.8025 360.292 50.8619 360.04 50.9805C359.789 51.0991 359.568 51.2623 359.377 51.4699C359.197 51.6775 359.051 51.9246 358.94 52.2114C358.84 52.4982 358.79 52.8096 358.79 53.1457ZM366.331 46.1904H368.35V54.5249C368.35 54.8116 368.421 55.0341 368.561 55.1922C368.702 55.3503 368.903 55.4295 369.164 55.4295C369.285 55.4295 369.415 55.4096 369.556 55.3702C369.707 55.3307 369.847 55.2812 369.978 55.2219L370.249 56.7345C369.978 56.863 369.661 56.962 369.3 57.0311C368.938 57.1003 368.612 57.1349 368.32 57.1349C367.687 57.1349 367.195 56.9718 366.843 56.6455C366.502 56.3095 366.331 55.8349 366.331 55.2219V46.1904ZM371.129 57.0163V49.2454H373.148V57.0163H371.129ZM371.129 48.1628V46.1904H373.148V48.1628H371.129ZM379.702 56.6159C379.431 56.7345 379.099 56.8532 378.707 56.9718C378.316 57.0904 377.904 57.1498 377.472 57.1498C377.19 57.1498 376.924 57.1151 376.673 57.0459C376.432 56.9768 376.216 56.868 376.025 56.7197C375.844 56.5616 375.698 56.3638 375.588 56.1265C375.477 55.8794 375.422 55.5828 375.422 55.2367V50.7729H374.382V49.2454H375.422V46.7243H377.442V49.2454H379.099V50.7729H377.442V54.5693C377.442 54.8461 377.512 55.0439 377.653 55.1625C377.803 55.2714 377.984 55.3257 378.195 55.3257C378.406 55.3257 378.612 55.291 378.813 55.2219C379.014 55.1527 379.175 55.0934 379.295 55.0439L379.702 56.6159ZM380.754 57.0163V49.2454H382.773V57.0163H380.754ZM380.754 48.1628V46.1904H382.773V48.1628H380.754ZM384.097 53.1308C384.097 52.5871 384.193 52.0729 384.384 51.5885C384.575 51.1041 384.851 50.6789 385.212 50.3132C385.574 49.9474 386.011 49.6556 386.523 49.4382C387.036 49.2207 387.614 49.1119 388.256 49.1119C389.121 49.1119 389.854 49.2949 390.457 49.6606C391.07 50.0264 391.527 50.5059 391.828 51.0991L389.854 51.6923C389.683 51.4056 389.457 51.1881 389.176 51.0398C388.894 50.8817 388.583 50.8025 388.241 50.8025C387.95 50.8025 387.679 50.8619 387.428 50.9805C387.177 51.0893 386.956 51.2474 386.765 51.4551C386.584 51.6529 386.438 51.895 386.328 52.1817C386.227 52.4685 386.177 52.7847 386.177 53.1308C386.177 53.4769 386.232 53.7932 386.343 54.08C386.453 54.3667 386.599 54.6138 386.78 54.8215C386.971 55.0291 387.192 55.1922 387.443 55.3108C387.694 55.4197 387.96 55.474 388.241 55.474C388.603 55.474 388.935 55.385 389.236 55.207C389.548 55.0291 389.763 54.8116 389.884 54.5545L391.858 55.1477C391.587 55.7409 391.14 56.2253 390.517 56.601C389.894 56.9768 389.146 57.1646 388.272 57.1646C387.629 57.1646 387.051 57.0558 386.539 56.8383C386.026 56.6209 385.589 56.3291 385.227 55.9634C384.866 55.5876 384.585 55.1575 384.384 54.6732C384.193 54.1788 384.097 53.6647 384.097 53.1308ZM395.256 57.1646C394.874 57.1646 394.517 57.1053 394.186 56.9866C393.854 56.8582 393.568 56.685 393.327 56.4676C393.086 56.2401 392.895 55.9782 392.754 55.6816C392.623 55.385 392.558 55.0587 392.558 54.7028C392.558 54.3371 392.639 54.0008 392.799 53.6944C392.97 53.3779 393.201 53.111 393.493 52.8936C393.794 52.6761 394.151 52.508 394.563 52.3893C394.974 52.2609 395.426 52.1966 395.919 52.1966C396.27 52.1966 396.612 52.2262 396.944 52.2855C397.285 52.3449 397.586 52.4288 397.848 52.5376V52.0927C397.848 51.5787 397.697 51.1831 397.396 50.9063C397.104 50.6296 396.667 50.4911 396.085 50.4911C395.663 50.4911 395.251 50.5653 394.849 50.7136C394.447 50.8619 394.035 51.0793 393.613 51.3661L392.995 50.1055C394.01 49.4432 395.105 49.1119 396.281 49.1119C397.416 49.1119 398.295 49.3887 398.918 49.9424C399.551 50.4861 399.867 51.2771 399.867 52.3152V54.7325C399.867 54.9401 399.902 55.0884 399.973 55.1774C400.053 55.2664 400.178 55.3158 400.349 55.3257V57.0163C400.008 57.0854 399.711 57.1201 399.46 57.1201C399.078 57.1201 398.782 57.0361 398.571 56.868C398.37 56.6999 398.244 56.4774 398.194 56.2006L398.149 55.7706C397.797 56.2253 397.37 56.5714 396.868 56.8087C396.366 57.0459 395.828 57.1646 395.256 57.1646ZM395.828 55.7113C396.17 55.7113 396.491 55.6519 396.793 55.5333C397.104 55.4147 397.345 55.2565 397.516 55.0587C397.737 54.8906 397.848 54.7028 397.848 54.4952V53.6054C397.607 53.5164 397.345 53.4473 397.064 53.3978C396.783 53.3385 396.511 53.3088 396.25 53.3088C395.728 53.3088 395.301 53.4274 394.969 53.6647C394.638 53.8922 394.472 54.1838 394.472 54.5397C394.472 54.8758 394.603 55.1575 394.864 55.385C395.125 55.6024 395.447 55.7113 395.828 55.7113ZM401.739 46.1904H403.758V54.5249C403.758 54.8116 403.829 55.0341 403.969 55.1922C404.11 55.3503 404.311 55.4295 404.572 55.4295C404.693 55.4295 404.823 55.4096 404.964 55.3702C405.115 55.3307 405.255 55.2812 405.386 55.2219L405.657 56.7345C405.386 56.863 405.069 56.962 404.708 57.0311C404.346 57.1003 404.02 57.1349 403.728 57.1349C403.095 57.1349 402.603 56.9718 402.251 56.6455C401.91 56.3095 401.739 55.8349 401.739 55.2219V46.1904Z" fill="white"/>
<path d="M427.961 25.9511C425.672 23.4934 423.273 21.2819 420.632 19.2287C420.321 18.9873 419.874 19.2763 419.978 19.6521C421.459 25.0066 424.045 30.2983 428.032 34.2321C428.212 31.4782 428.214 28.7013 427.961 25.9511Z" fill="white"/>
<path d="M428.033 34.2341C430.335 31.5002 432.313 28.6736 434.095 25.622C434.299 25.2731 434.841 25.3975 434.862 25.7996C435.184 32.0506 432.757 39.3647 426.844 42.3147C427.433 39.6565 427.858 36.9513 428.033 34.2341Z" fill="white"/>
<path d="M426.845 42.3128C425.396 39.3792 423.774 36.6499 421.873 34.0045C421.648 33.6906 421.142 33.8345 421.126 34.2186C420.894 39.6183 421.836 45.3264 424.465 50.0664C425.439 47.5435 426.262 44.9519 426.845 42.3128Z" fill="white"/>
<path d="M424.463 50.0683C427.452 48.1776 430.183 46.1105 432.802 43.7885C433.104 43.5207 433.578 43.8004 433.476 44.1876C431.898 50.1584 427.386 56.2855 420.961 57.3677C422.296 55.0209 423.493 52.5849 424.463 50.0683Z" fill="white"/>
<path d="M420.962 57.3661C420.438 54.1658 419.689 51.1129 418.646 48.0607C418.522 47.6977 417.998 47.6907 417.869 48.0518C416.045 53.1177 415.306 58.8329 416.407 64.0853C418.079 61.9554 419.626 59.717 420.962 57.3661Z" fill="white"/>
<path d="M416.406 64.087C419.814 63.137 423.033 61.9489 426.221 60.4926C426.589 60.3243 426.958 60.7277 426.746 61.0682C423.468 66.3289 417.331 70.8836 410.867 70.0987C412.851 68.2279 414.727 66.2294 416.406 64.087Z" fill="white"/>
<path d="M410.87 70.0972C411.335 66.8728 411.532 63.7279 411.441 60.4952C411.43 60.112 410.931 59.955 410.699 60.2635C407.434 64.6194 404.999 69.9107 404.416 75.2753C406.686 73.7052 408.866 71.989 410.87 70.0972Z" fill="white"/>
<path d="M429.32 26.1222C429.319 26.0946 429.32 26.0674 429.318 26.0396C429.004 21.937 428.236 17.8254 427.034 13.8193C426.806 13.0608 425.997 12.6281 425.226 12.8511C424.455 13.075 424.014 13.8718 424.242 14.6305C425.374 18.4032 426.1 22.2727 426.404 26.1335C426.405 26.1638 426.405 26.194 426.408 26.2244C426.638 28.7199 426.661 31.4247 426.476 34.2633C426.476 34.2639 426.476 34.2644 426.476 34.2648C426.476 34.2653 426.476 34.2657 426.476 34.2663C426.317 36.729 425.928 39.368 425.321 42.11C425.321 42.1102 425.321 42.1106 425.321 42.1108C424.792 44.5043 424.014 47.0376 423.008 49.6403C423.008 49.6407 423.008 49.6408 423.008 49.6412C423.008 49.642 423.008 49.6425 423.007 49.6431C422.127 51.9259 420.983 54.3104 419.606 56.7308C419.606 56.731 419.606 56.7314 419.605 56.7316C418.392 58.8669 416.904 61.0623 415.181 63.2573C415.18 63.2579 415.18 63.2584 415.179 63.259C415.179 63.2592 415.179 63.2592 415.179 63.2594C413.652 65.2067 411.842 67.1706 409.799 69.0966C409.799 69.097 409.799 69.0975 409.798 69.0979C407.979 70.8152 405.871 72.5058 403.533 74.1227C403.533 74.123 403.532 74.1236 403.531 74.1241C403.531 74.1241 403.531 74.1243 403.531 74.1243C401.436 75.5747 399.052 76.9518 396.443 78.2176C395.722 78.5674 395.426 79.4262 395.781 80.1356C396.035 80.6417 396.551 80.935 397.088 80.935C397.304 80.935 397.523 80.8873 397.73 80.7869C400.473 79.4559 402.988 78.0027 405.205 76.4678C405.206 76.4673 405.206 76.4671 405.207 76.4665C407.666 74.7655 409.89 72.9813 411.815 71.1632C411.816 71.1626 411.816 71.162 411.817 71.1615C413.963 69.1379 415.869 67.0681 417.484 65.0093C417.484 65.0093 417.484 65.0091 417.484 65.0089C417.484 65.0087 417.484 65.0086 417.484 65.0084C419.295 62.7019 420.864 60.3875 422.146 58.1295C422.147 58.128 422.148 58.1265 422.149 58.125C423.594 55.5839 424.799 53.0719 425.729 50.6591C425.729 50.6589 425.729 50.6589 425.729 50.6585C425.729 50.6584 425.729 50.6584 425.729 50.658C426.785 47.9243 427.604 45.2549 428.164 42.7238C428.164 42.7232 428.164 42.7229 428.164 42.7223C428.803 39.8384 429.213 37.0545 429.381 34.4474C429.381 34.4453 429.381 34.4435 429.381 34.4416C429.571 31.5164 429.55 28.7191 429.32 26.1222Z" fill="white"/>
</g>
</g>
<defs>
<filter id="filter0_d" x="0" y="0" width="439" height="89.1152" filterUnits="userSpaceOnUse" color-interpolation-filters="sRGB">
<feFlood flood-opacity="0" result="BackgroundImageFix"/>
<feColorMatrix in="SourceAlpha" type="matrix" values="0 0 0 0 0 0 0 0 0 0 0 0 0 0 0 0 0 0 127 0"/>
<feOffset dy="4"/>
<feGaussianBlur stdDeviation="2"/>
<feColorMatrix type="matrix" values="0 0 0 0 0 0 0 0 0 0 0 0 0 0 0 0 0 0 0.25 0"/>
<feBlend mode="normal" in2="BackgroundImageFix" result="effect1_dropShadow"/>
<feBlend mode="normal" in="SourceGraphic" in2="effect1_dropShadow" result="shape"/>
</filter>
<clipPath id="clip0">
<rect width="137.412" height="81.1152" fill="white" transform="translate(149.887)"/>
</clipPath>
<clipPath id="clip1">
<rect width="115.014" height="68.4031" fill="white" transform="translate(4 12.7119)"/>
</clipPath>
<clipPath id="clip2">
<rect width="116.225" height="68.4031" fill="white" transform="translate(318.775 12.7119)"/>
</clipPath>
</defs>
</svg>
