<svg width="228" height="234" viewBox="0 0 228 234" fill="none" xmlns="http://www.w3.org/2000/svg">
<path d="M79.8479 174V162.471L74.8919 171.312H73.8209L68.8439 162.471V174H66.9539V159.09H68.9489L74.3459 168.771L79.7639 159.09H81.7379V174H79.8479ZM89.6179 174.21C88.7919 174.21 88.0359 174.056 87.3499 173.748C86.6779 173.44 86.0969 173.027 85.6069 172.509C85.1309 171.991 84.7599 171.389 84.4939 170.703C84.2279 170.017 84.0949 169.296 84.0949 168.54C84.0949 167.77 84.2279 167.042 84.4939 166.356C84.7739 165.67 85.1519 165.068 85.6279 164.55C86.1179 164.032 86.6989 163.619 87.3709 163.311C88.0569 163.003 88.8059 162.849 89.6179 162.849C90.4299 162.849 91.1789 163.003 91.8649 163.311C92.5509 163.619 93.1319 164.032 93.6079 164.55C94.0979 165.068 94.4759 165.67 94.7419 166.356C95.0219 167.042 95.1619 167.77 95.1619 168.54C95.1619 169.296 95.0289 170.017 94.7629 170.703C94.4969 171.389 94.1189 171.991 93.6289 172.509C93.1389 173.027 92.5509 173.44 91.8649 173.748C91.1929 174.056 90.4439 174.21 89.6179 174.21ZM85.9849 168.561C85.9849 169.135 86.0759 169.667 86.2579 170.157C86.4539 170.647 86.7129 171.074 87.0349 171.438C87.3709 171.802 87.7559 172.089 88.1899 172.299C88.6379 172.509 89.1139 172.614 89.6179 172.614C90.1219 172.614 90.5909 172.509 91.0249 172.299C91.4729 172.089 91.8649 171.802 92.2009 171.438C92.5369 171.06 92.7959 170.626 92.9779 170.136C93.1739 169.632 93.2719 169.093 93.2719 168.519C93.2719 167.959 93.1739 167.434 92.9779 166.944C92.7959 166.44 92.5369 166.006 92.2009 165.642C91.8649 165.264 91.4729 164.97 91.0249 164.76C90.5909 164.55 90.1219 164.445 89.6179 164.445C89.1139 164.445 88.6379 164.557 88.1899 164.781C87.7559 164.991 87.3709 165.285 87.0349 165.663C86.7129 166.027 86.4539 166.461 86.2579 166.965C86.0759 167.455 85.9849 167.987 85.9849 168.561ZM103.029 174.21C102.175 174.21 101.398 174 100.698 173.58C99.9982 173.16 99.4452 172.614 99.0392 171.942V174H97.4012V158.67H99.2492V165.222C99.7112 164.508 100.278 163.934 100.95 163.5C101.622 163.066 102.406 162.849 103.302 162.849C104.058 162.849 104.737 163.01 105.339 163.332C105.941 163.654 106.452 164.081 106.872 164.613C107.306 165.131 107.635 165.74 107.859 166.44C108.097 167.126 108.216 167.833 108.216 168.561C108.216 169.331 108.083 170.059 107.817 170.745C107.551 171.431 107.187 172.033 106.725 172.551C106.263 173.055 105.71 173.461 105.066 173.769C104.436 174.063 103.757 174.21 103.029 174.21ZM102.567 172.614C103.113 172.614 103.617 172.502 104.079 172.278C104.541 172.054 104.94 171.753 105.276 171.375C105.612 170.997 105.871 170.57 106.053 170.094C106.235 169.604 106.326 169.093 106.326 168.561C106.326 168.029 106.235 167.518 106.053 167.028C105.885 166.524 105.64 166.083 105.318 165.705C105.01 165.327 104.632 165.026 104.184 164.802C103.75 164.564 103.267 164.445 102.735 164.445C102.343 164.445 101.972 164.515 101.622 164.655C101.272 164.795 100.943 164.984 100.635 165.222C100.341 165.446 100.075 165.712 99.8372 166.02C99.6132 166.328 99.4172 166.657 99.2492 167.007V170.178C99.3192 170.528 99.4662 170.85 99.6902 171.144C99.9282 171.438 100.201 171.697 100.509 171.921C100.831 172.131 101.167 172.299 101.517 172.425C101.881 172.551 102.231 172.614 102.567 172.614ZM110.485 174V163.038H112.333V174H110.485ZM110.485 160.98V158.67H112.333V160.98H110.485ZM115.367 158.67H117.215V171.165C117.215 171.571 117.32 171.893 117.53 172.131C117.754 172.355 118.062 172.467 118.454 172.467C118.608 172.467 118.79 172.446 119 172.404C119.21 172.348 119.406 172.285 119.588 172.215L119.882 173.706C119.574 173.832 119.21 173.937 118.79 174.021C118.37 174.105 117.999 174.147 117.677 174.147C116.963 174.147 116.396 173.944 115.976 173.538C115.57 173.132 115.367 172.565 115.367 171.837V158.67ZM126.185 174.21C125.359 174.21 124.603 174.063 123.917 173.769C123.231 173.461 122.643 173.048 122.153 172.53C121.663 172.012 121.278 171.41 120.998 170.724C120.732 170.024 120.599 169.289 120.599 168.519C120.599 167.749 120.732 167.021 120.998 166.335C121.278 165.649 121.663 165.047 122.153 164.529C122.657 164.011 123.252 163.605 123.938 163.311C124.624 163.003 125.38 162.849 126.206 162.849C127.032 162.849 127.781 163.003 128.453 163.311C129.139 163.619 129.72 164.032 130.196 164.55C130.672 165.054 131.036 165.649 131.288 166.335C131.554 167.007 131.687 167.707 131.687 168.435C131.687 168.589 131.68 168.729 131.666 168.855C131.666 168.981 131.659 169.079 131.645 169.149H122.552C122.594 169.695 122.72 170.192 122.93 170.64C123.14 171.088 123.413 171.473 123.749 171.795C124.085 172.117 124.463 172.369 124.883 172.551C125.317 172.733 125.772 172.824 126.248 172.824C126.584 172.824 126.913 172.782 127.235 172.698C127.557 172.6 127.858 172.474 128.138 172.32C128.418 172.166 128.663 171.977 128.873 171.753C129.097 171.529 129.265 171.277 129.377 170.997L130.973 171.438C130.791 171.844 130.539 172.215 130.217 172.551C129.909 172.887 129.545 173.181 129.125 173.433C128.719 173.671 128.264 173.86 127.76 174C127.256 174.14 126.731 174.21 126.185 174.21ZM129.944 167.784C129.902 167.266 129.769 166.79 129.545 166.356C129.335 165.908 129.062 165.53 128.726 165.222C128.404 164.914 128.026 164.676 127.592 164.508C127.158 164.326 126.696 164.235 126.206 164.235C125.716 164.235 125.254 164.326 124.82 164.508C124.386 164.676 124.001 164.921 123.665 165.243C123.343 165.551 123.077 165.922 122.867 166.356C122.671 166.79 122.552 167.266 122.51 167.784H129.944ZM133.932 174V159.09H140.148C140.806 159.09 141.408 159.23 141.954 159.51C142.514 159.776 142.99 160.14 143.382 160.602C143.788 161.05 144.103 161.561 144.327 162.135C144.551 162.695 144.663 163.269 144.663 163.857C144.663 164.473 144.558 165.068 144.348 165.642C144.138 166.216 143.837 166.727 143.445 167.175C143.067 167.623 142.605 167.98 142.059 168.246C141.527 168.512 140.932 168.645 140.274 168.645H135.822V174H133.932ZM135.822 166.965H140.169C140.561 166.965 140.911 166.888 141.219 166.734C141.541 166.566 141.814 166.342 142.038 166.062C142.262 165.768 142.437 165.432 142.563 165.054C142.689 164.676 142.752 164.277 142.752 163.857C142.752 163.423 142.675 163.017 142.521 162.639C142.381 162.261 142.185 161.932 141.933 161.652C141.695 161.372 141.408 161.155 141.072 161.001C140.75 160.847 140.407 160.77 140.043 160.77H135.822V166.965ZM149.413 174.21C148.895 174.21 148.412 174.126 147.964 173.958C147.516 173.776 147.124 173.531 146.788 173.223C146.466 172.915 146.207 172.558 146.011 172.152C145.829 171.732 145.738 171.277 145.738 170.787C145.738 170.283 145.85 169.828 146.074 169.422C146.298 169.002 146.613 168.645 147.019 168.351C147.439 168.057 147.929 167.826 148.489 167.658C149.063 167.49 149.686 167.406 150.358 167.406C150.89 167.406 151.429 167.455 151.975 167.553C152.521 167.651 153.004 167.784 153.424 167.952V167.07C153.424 166.174 153.172 165.474 152.668 164.97C152.164 164.452 151.45 164.193 150.526 164.193C149.42 164.193 148.258 164.62 147.04 165.474L146.431 164.277C147.845 163.325 149.266 162.849 150.694 162.849C152.136 162.849 153.256 163.234 154.054 164.004C154.866 164.774 155.272 165.859 155.272 167.259V171.732C155.272 172.166 155.468 172.39 155.86 172.404V174C155.664 174.028 155.503 174.049 155.377 174.063C155.251 174.077 155.118 174.084 154.978 174.084C154.614 174.084 154.32 173.979 154.096 173.769C153.886 173.545 153.76 173.279 153.718 172.971L153.676 172.194C153.186 172.852 152.563 173.356 151.807 173.706C151.065 174.042 150.267 174.21 149.413 174.21ZM149.896 172.824C150.554 172.824 151.163 172.705 151.723 172.467C152.297 172.215 152.731 171.886 153.025 171.48C153.291 171.214 153.424 170.941 153.424 170.661V169.044C152.528 168.694 151.597 168.519 150.631 168.519C149.707 168.519 148.951 168.715 148.363 169.107C147.789 169.499 147.502 170.01 147.502 170.64C147.502 170.948 147.558 171.235 147.67 171.501C147.796 171.767 147.964 171.998 148.174 172.194C148.398 172.39 148.657 172.544 148.951 172.656C149.245 172.768 149.56 172.824 149.896 172.824ZM158.383 176.982C158.565 177.01 158.747 177.031 158.929 177.045C159.111 177.059 159.251 177.066 159.349 177.066C159.517 177.066 159.664 177.024 159.79 176.94C159.93 176.87 160.063 176.723 160.189 176.499C160.329 176.275 160.483 175.96 160.651 175.554C160.819 175.162 161.029 174.644 161.281 174L156.64 163.038H158.551L162.289 172.341L165.691 163.038H167.455L162.121 176.877C161.925 177.367 161.596 177.794 161.134 178.158C160.686 178.536 160.063 178.725 159.265 178.725C159.139 178.725 159.006 178.718 158.866 178.704C158.74 178.69 158.579 178.662 158.383 178.62V176.982Z" fill="#232323"/>
<path d="M105.275 126.643C100.987 126.643 97.1219 124.048 95.4793 120.066L58.9092 31.3078C56.6718 25.877 59.2366 19.6508 64.6381 17.4007L102.942 1.45129C105.535 0.370637 108.45 0.370394 111.044 1.45062C113.638 2.53084 115.698 4.603 116.772 7.21106L153.342 95.9732C155.576 101.403 153.012 107.625 147.614 109.875L109.31 125.832C108.031 126.366 106.66 126.642 105.275 126.643ZM106.993 6.3671C106.352 6.36816 105.716 6.49666 105.124 6.74523L66.8185 22.6947C65.6211 23.1933 64.6698 24.1498 64.174 25.3537C63.6782 26.5576 63.6785 27.9102 64.1748 29.1139L100.745 117.878C101.78 120.382 104.636 121.572 107.13 120.538L145.433 104.577C146.631 104.079 147.582 103.122 148.078 101.918C148.573 100.714 148.573 99.3617 148.077 98.158L111.507 9.40317C110.75 7.56799 108.97 6.37041 106.993 6.3671Z" fill="#801014"/>
<path style="mix-blend-mode:multiply" opacity="0.7" d="M119.188 13.0648L113.922 15.2578L128.401 50.4026L133.667 48.2096L119.188 13.0648Z" fill="url(#paint0_linear)"/>
<path style="mix-blend-mode:multiply" opacity="0.7" d="M145.643 92.2633L150.909 90.0703L134.519 50.2878L129.253 52.4807L145.643 92.2633Z" fill="url(#paint1_linear)"/>
<path d="M113.511 75.217C119.5 67.6286 128.646 61.3336 139.601 56.7667C149.463 52.3472 160.262 50.4602 171.029 51.2755L155.585 13.7849C146.182 12.4971 135.115 14.7074 124.16 19.2743C114.078 23.1579 105.113 29.4977 98.0703 37.7246L113.511 75.217Z" fill="#A6272B"/>
<path d="M144.025 77.3251C132.168 77.3251 121.313 79.6286 112.9 84.3307V46.4218C122.538 41.532 133.233 39.1248 144.025 39.4162C155.883 39.4162 166.95 41.6266 175.148 46.431V84.3398C165.512 79.446 154.817 77.0356 144.025 77.3251Z" fill="#801014"/>
<path d="M9.08789 228.396C7.41797 228.396 5.94824 228.234 4.67871 227.912C3.41895 227.59 2.24707 227.189 1.16309 226.711V221.525H1.66113C2.75488 222.453 3.96094 223.166 5.2793 223.664C6.59766 224.162 7.87695 224.411 9.11719 224.411C9.42969 224.411 9.83984 224.377 10.3477 224.309C10.8652 224.24 11.2803 224.133 11.5928 223.986C11.9736 223.82 12.2959 223.591 12.5596 223.298C12.8232 222.995 12.9551 222.6 12.9551 222.111C12.9551 221.564 12.7402 221.12 12.3105 220.778C11.8809 220.437 11.3682 220.188 10.7725 220.031C10.0303 219.836 9.23438 219.65 8.38477 219.475C7.54492 219.299 6.75879 219.084 6.02637 218.83C4.33691 218.234 3.12598 217.434 2.39355 216.428C1.66113 215.422 1.29492 214.162 1.29492 212.648C1.29492 210.607 2.15918 208.957 3.8877 207.697C5.61621 206.428 7.77441 205.793 10.3623 205.793C11.6611 205.793 12.9502 205.925 14.2295 206.188C15.5186 206.452 16.6709 206.809 17.6865 207.258V212.238H17.2031C16.3926 211.545 15.4014 210.959 14.2295 210.48C13.0674 210.002 11.8711 209.763 10.6406 209.763C10.1621 209.763 9.73242 209.797 9.35156 209.865C8.9707 209.934 8.57031 210.065 8.15039 210.261C7.80859 210.417 7.51074 210.651 7.25684 210.964C7.0127 211.267 6.89062 211.608 6.89062 211.989C6.89062 212.546 7.08594 212.99 7.47656 213.322C7.87695 213.645 8.64355 213.938 9.77637 214.201C10.5088 214.367 11.2119 214.528 11.8857 214.685C12.5693 214.841 13.2969 215.056 14.0684 215.329C15.582 215.876 16.7051 216.613 17.4375 217.541C18.1797 218.459 18.5508 219.675 18.5508 221.188C18.5508 223.356 17.6963 225.1 15.9873 226.418C14.2881 227.736 11.9883 228.396 9.08789 228.396ZM29.4932 228.439C26.3877 228.439 24.0049 227.697 22.3447 226.213C20.6943 224.729 19.8691 222.614 19.8691 219.87C19.8691 217.185 20.6406 215.041 22.1836 213.439C23.7266 211.838 25.8848 211.037 28.6582 211.037C31.1777 211.037 33.0723 211.716 34.3418 213.073C35.6113 214.431 36.2461 216.374 36.2461 218.903V220.749H25.0107C25.0596 221.511 25.2207 222.15 25.4941 222.668C25.7676 223.176 26.1289 223.581 26.5781 223.884C27.0176 224.187 27.5303 224.406 28.1162 224.543C28.7021 224.67 29.3418 224.733 30.0352 224.733C30.6309 224.733 31.2168 224.67 31.793 224.543C32.3691 224.406 32.8965 224.23 33.375 224.016C33.7949 223.83 34.1807 223.63 34.5322 223.415C34.8936 223.2 35.1865 223.01 35.4111 222.844H35.9531V227.077C35.5332 227.243 35.1475 227.399 34.7959 227.546C34.4541 227.683 33.9805 227.824 33.375 227.971C32.8184 228.117 32.2422 228.229 31.6465 228.308C31.0605 228.396 30.3428 228.439 29.4932 228.439ZM31.1924 217.658C31.1631 216.574 30.9092 215.749 30.4307 215.183C29.9619 214.616 29.2393 214.333 28.2627 214.333C27.2666 214.333 26.4854 214.631 25.9189 215.227C25.3623 215.822 25.0547 216.633 24.9961 217.658H31.1924ZM54.293 228H49.1367V219.841C49.1367 219.177 49.1074 218.518 49.0488 217.863C49 217.199 48.9023 216.711 48.7559 216.398C48.5801 216.027 48.3262 215.764 47.9941 215.607C47.6621 215.441 47.2178 215.358 46.6611 215.358C46.2412 215.358 45.8164 215.437 45.3867 215.593C44.957 215.749 44.498 215.998 44.0098 216.34V228H38.8828V211.55H44.0098V213.366C44.8496 212.653 45.665 212.097 46.4561 211.696C47.2568 211.296 48.1406 211.096 49.1074 211.096C50.7871 211.096 52.0713 211.628 52.96 212.692C53.8486 213.747 54.293 215.28 54.293 217.292V228ZM73.0576 228H67.9307V226.286C67.5986 226.56 67.2178 226.853 66.7881 227.165C66.3682 227.478 65.9971 227.712 65.6748 227.868C65.2646 228.063 64.8594 228.21 64.459 228.308C64.0586 228.405 63.5801 228.454 63.0234 228.454C61.1484 228.454 59.6641 227.678 58.5703 226.125C57.4766 224.572 56.9297 222.497 56.9297 219.899C56.9297 218.464 57.1152 217.219 57.4863 216.164C57.8574 215.109 58.3701 214.191 59.0244 213.41C59.6201 212.697 60.3428 212.136 61.1924 211.726C62.042 211.306 62.9404 211.096 63.8877 211.096C64.7471 211.096 65.4502 211.188 65.9971 211.374C66.5537 211.55 67.1982 211.828 67.9307 212.209V205.207H73.0576V228ZM67.9307 223.459V215.388C67.6768 215.261 67.3447 215.158 66.9346 215.08C66.5244 214.992 66.1729 214.948 65.8799 214.948C64.6494 214.948 63.7217 215.378 63.0967 216.237C62.4814 217.097 62.1738 218.298 62.1738 219.841C62.1738 221.462 62.418 222.634 62.9062 223.356C63.4043 224.079 64.2051 224.44 65.3086 224.44C65.7578 224.44 66.2119 224.353 66.6709 224.177C67.1299 224.001 67.5498 223.762 67.9307 223.459ZM92.0859 228.322C89.9961 228.322 88.4727 227.893 87.5156 227.033C86.5684 226.174 86.0947 224.768 86.0947 222.814V215.124H84.1318V211.55H86.0947V206.848H91.2217V211.55H96.1582V215.124H91.2217V220.954C91.2217 221.53 91.2266 222.033 91.2363 222.463C91.2461 222.893 91.3242 223.278 91.4707 223.62C91.6074 223.962 91.8467 224.235 92.1885 224.44C92.54 224.636 93.0479 224.733 93.7119 224.733C93.9854 224.733 94.3418 224.675 94.7812 224.558C95.2305 224.44 95.543 224.333 95.7188 224.235H96.1582V227.854C95.6016 228 95.0107 228.112 94.3857 228.19C93.7607 228.278 92.9941 228.322 92.0859 228.322ZM114.059 219.782C114.059 222.487 113.316 224.621 111.832 226.184C110.357 227.736 108.268 228.513 105.562 228.513C102.877 228.513 100.787 227.736 99.293 226.184C97.8086 224.621 97.0664 222.487 97.0664 219.782C97.0664 217.048 97.8086 214.909 99.293 213.366C100.787 211.813 102.877 211.037 105.562 211.037C108.258 211.037 110.348 211.818 111.832 213.381C113.316 214.934 114.059 217.067 114.059 219.782ZM108.8 219.812C108.8 218.835 108.717 218.024 108.551 217.38C108.395 216.726 108.175 216.203 107.892 215.812C107.589 215.402 107.247 215.119 106.866 214.963C106.485 214.797 106.051 214.714 105.562 214.714C105.104 214.714 104.688 214.787 104.317 214.934C103.946 215.07 103.604 215.339 103.292 215.739C102.999 216.12 102.765 216.643 102.589 217.307C102.413 217.971 102.325 218.806 102.325 219.812C102.325 220.817 102.408 221.633 102.574 222.258C102.74 222.873 102.955 223.366 103.219 223.737C103.492 224.118 103.834 224.396 104.244 224.572C104.654 224.748 105.108 224.836 105.606 224.836C106.017 224.836 106.432 224.748 106.852 224.572C107.281 224.396 107.623 224.133 107.877 223.781C108.18 223.361 108.409 222.858 108.565 222.272C108.722 221.677 108.8 220.856 108.8 219.812ZM142.096 222.917H139.151V228.059H133.863V222.917H124.269V218.845L133.688 206.188H139.151V218.991H142.096V222.917ZM133.863 218.991V211.564L128.341 218.991H133.863ZM160.89 221.921C160.89 222.858 160.694 223.732 160.304 224.543C159.923 225.344 159.361 226.037 158.619 226.623C157.877 227.209 156.969 227.668 155.895 228C154.83 228.332 153.609 228.498 152.232 228.498C150.768 228.498 149.483 228.332 148.38 228C147.276 227.658 146.373 227.199 145.67 226.623C144.977 226.047 144.464 225.368 144.132 224.587C143.8 223.806 143.634 222.98 143.634 222.111C143.634 220.861 143.976 219.821 144.659 218.991C145.353 218.161 146.354 217.468 147.662 216.911V216.823C146.383 216.198 145.489 215.441 144.981 214.553C144.474 213.664 144.22 212.673 144.22 211.579C144.22 210.778 144.396 210.026 144.747 209.323C145.099 208.62 145.626 207.99 146.329 207.434C146.993 206.906 147.833 206.486 148.849 206.174C149.874 205.852 151.021 205.69 152.291 205.69C153.639 205.69 154.811 205.837 155.807 206.13C156.812 206.413 157.638 206.789 158.282 207.258C158.946 207.736 159.454 208.317 159.806 209.001C160.157 209.675 160.333 210.407 160.333 211.198C160.333 212.233 160.03 213.171 159.425 214.011C158.829 214.841 157.911 215.539 156.671 216.105V216.193C158.116 216.779 159.181 217.551 159.864 218.508C160.548 219.455 160.89 220.593 160.89 221.921ZM155.03 211.843C155.03 211.101 154.786 210.51 154.298 210.07C153.81 209.621 153.146 209.396 152.306 209.396C151.505 209.396 150.855 209.597 150.357 209.997C149.869 210.397 149.625 210.891 149.625 211.477C149.625 212.062 149.771 212.536 150.064 212.897C150.367 213.249 150.831 213.576 151.456 213.879C151.729 214.016 152.052 214.157 152.423 214.304C152.804 214.45 153.307 214.641 153.932 214.875C154.312 214.377 154.591 213.898 154.767 213.439C154.942 212.971 155.03 212.438 155.03 211.843ZM155.484 222.155C155.484 221.442 155.333 220.896 155.03 220.515C154.728 220.134 154.078 219.704 153.082 219.226C152.799 219.089 152.389 218.918 151.852 218.713C151.324 218.508 150.855 218.317 150.445 218.142C150.064 218.522 149.723 218.996 149.42 219.562C149.127 220.119 148.98 220.734 148.98 221.408C148.98 222.424 149.303 223.234 149.947 223.84C150.592 224.445 151.441 224.748 152.496 224.748C152.779 224.748 153.102 224.704 153.463 224.616C153.834 224.519 154.161 224.372 154.444 224.177C154.757 223.952 155.006 223.688 155.191 223.386C155.387 223.083 155.484 222.673 155.484 222.155ZM187.872 228H173.458V224.191H178.058V212.663H173.458V209.104C174.132 209.104 174.801 209.06 175.465 208.972C176.129 208.884 176.661 208.742 177.062 208.547C177.53 208.312 177.892 208 178.146 207.609C178.409 207.209 178.561 206.716 178.6 206.13H183.375V224.191H187.872V228ZM206.974 228H192.56V224.191H197.159V212.663H192.56V209.104C193.233 209.104 193.902 209.06 194.566 208.972C195.23 208.884 195.763 208.742 196.163 208.547C196.632 208.312 196.993 208 197.247 207.609C197.511 207.209 197.662 206.716 197.701 206.13H202.477V224.191H206.974V228ZM226.544 220.617C226.544 221.75 226.349 222.8 225.958 223.767C225.577 224.733 225.001 225.568 224.229 226.271C223.468 226.965 222.56 227.502 221.505 227.883C220.46 228.264 219.171 228.454 217.638 228.454C216.017 228.444 214.62 228.303 213.448 228.029C212.286 227.766 211.324 227.468 210.562 227.136V222.375H211.061C211.334 222.531 211.642 222.707 211.983 222.902C212.325 223.098 212.774 223.303 213.331 223.518C213.849 223.723 214.371 223.894 214.898 224.03C215.436 224.157 216.031 224.221 216.686 224.221C217.252 224.221 217.862 224.152 218.517 224.016C219.171 223.869 219.698 223.61 220.099 223.239C220.392 222.946 220.621 222.619 220.787 222.258C220.953 221.896 221.036 221.413 221.036 220.808C221.036 220.3 220.929 219.865 220.714 219.504C220.509 219.133 220.235 218.835 219.894 218.61C219.396 218.278 218.795 218.068 218.092 217.98C217.389 217.883 216.783 217.834 216.275 217.834C215.475 217.834 214.693 217.897 213.932 218.024C213.18 218.151 212.525 218.288 211.969 218.435H211.5V206.188H225.943V210.305H216.671V213.938C216.964 213.918 217.311 213.903 217.711 213.894C218.121 213.874 218.438 213.864 218.663 213.864C219.708 213.864 220.675 213.972 221.563 214.187C222.452 214.392 223.238 214.714 223.922 215.153C224.752 215.69 225.396 216.413 225.855 217.321C226.314 218.22 226.544 219.318 226.544 220.617Z" fill="#801014"/>
<defs>
<linearGradient id="paint0_linear" x1="127.493" y1="40.8996" x2="125.104" y2="13.1707" gradientUnits="userSpaceOnUse">
<stop stop-color="#504678"/>
<stop offset="0.302" stop-color="#504678" stop-opacity="0.616"/>
<stop offset="0.608" stop-color="#504678" stop-opacity="0.283"/>
<stop offset="0.852" stop-color="#504678" stop-opacity="0.076"/>
<stop offset="1" stop-color="#504678" stop-opacity="0"/>
</linearGradient>
<linearGradient id="paint1_linear" x1="135.886" y1="60.9037" x2="137.384" y2="91.9753" gradientUnits="userSpaceOnUse">
<stop stop-color="#504678"/>
<stop offset="0.302" stop-color="#504678" stop-opacity="0.616"/>
<stop offset="0.608" stop-color="#504678" stop-opacity="0.283"/>
<stop offset="0.852" stop-color="#504678" stop-opacity="0.076"/>
<stop offset="1" stop-color="#504678" stop-opacity="0"/>
</linearGradient>
</defs>
</svg>
